<?xml version="1.0" encoding="UTF-8" standalone="no"?>
<!-- Created with Inkscape (http://www.inkscape.org/) -->

<svg
   width="82.020828mm"
   height="25.585093mm"
   viewBox="0 0 82.020828 25.585093"
   version="1.1"
   id="svg1"
   inkscape:version="1.4 (86a8ad7, 2024-10-11)"
   sodipodi:docname="alotv.svg"
   xmlns:inkscape="http://www.inkscape.org/namespaces/inkscape"
   xmlns:sodipodi="http://sodipodi.sourceforge.net/DTD/sodipodi-0.dtd"
   xmlns="http://www.w3.org/2000/svg"
   xmlns:svg="http://www.w3.org/2000/svg">
  <sodipodi:namedview
     id="namedview1"
     pagecolor="#ffffff"
     bordercolor="#cccccc"
     borderopacity="1"
     inkscape:showpageshadow="0"
     inkscape:pageopacity="1"
     inkscape:pagecheckerboard="0"
     inkscape:deskcolor="#d1d1d1"
     inkscape:document-units="mm"
     inkscape:zoom="0.68862935"
     inkscape:cx="99.47296"
     inkscape:cy="105.2816"
     inkscape:window-width="1920"
     inkscape:window-height="991"
     inkscape:window-x="-9"
     inkscape:window-y="-9"
     inkscape:window-maximized="1"
     inkscape:current-layer="layer1" />
  <defs
     id="defs1" />
  <g
     inkscape:label="Kiht 1"
     inkscape:groupmode="layer"
     id="layer1"
     transform="translate(-78.58125,-120.65)">
    <g
       id="g12"
       style="display:inline"
       transform="matrix(0.26458333,0,0,0.26458333,78.58125,120.65232)">
      <path
         style="display:none;fill:#fbfcfa;stroke-width:0.666667"
         d="M 0,48.333332 V 0 H 155.33333 310.66666 V 48.333332 96.666664 H 155.33333 0 Z"
         id="path28"
         inkscape:connector-curvature="0" />
      <path
         style="display:none;fill:#cee2b3;stroke-width:0.666667"
         d="M 0,58.243753 V 19.820842 L 8.8333331,10.897259 C 13.691666,5.9892884 18.537758,1.5295988 19.602425,0.98683797 21.243057,0.15045395 27.203557,0 58.697765,0 c 33.269686,0 37.20194,0.11038858 37.56424,1.054525 0.528746,1.3778928 0.528746,93.179719 0,94.557612 -0.353627,0.921534 -2.446547,1.054527 -16.59534,1.054527 -18.385078,0 -17,0.494333 -17,-6.06728 v -3.958226 l -14.833333,0.17942 -14.833333,0.17942 -0.174208,3.333333 c -0.09582,1.833333 -0.326531,4.008333 -0.512702,4.833333 l -0.338492,1.5 H 15.987298 0 Z M 62.666665,42.987244 v -9.67942 l -14.833333,0.17942 -14.833333,0.179422 -0.184971,9.499999 -0.184971,9.5 h 15.018304 15.018304 z m 43.071325,52.624893 c -0.52875,-1.377893 -0.52875,-93.1797192 0,-94.557612 C 106.09192,0.13218362 108.21392,0 122.66666,0 137.11941,0 139.2414,0.13218362 139.59534,1.054525 139.8179,1.6345137 140,15.881604 140,32.714726 v 30.605676 l 31.83333,0.173132 31.83333,0.173131 0.18823,14.999999 c 0.10352,8.25 0.0228,15.675 -0.17937,16.5 l -0.36759,1.5 h -48.58264 c -43.68602,0 -48.62343,-0.106287 -48.9873,-1.054527 z m 107.33333,0 c -0.52874,-1.377893 -0.52874,-93.1797192 0,-94.557612 C 213.43515,0.10640474 218.33455,0 261.62687,0 c 26.483,0 48.2759,0.1248361 48.42868,0.27741357 0.15278,0.15257745 0.12778,19.83046643 -0.0556,43.72864343 l -0.33333,43.451227 -4.82915,4.604693 -4.82915,4.604687 h -43.26619 c -38.83811,0 -43.3076,-0.107927 -43.67085,-1.054527 z m 53.7328,-37.112139 0.19587,-4.833333 4.66667,-0.333333 4.66667,-0.333333 0.18456,-9.846136 0.18456,-9.846135 -14.85123,0.179469 -14.85123,0.179469 -0.17942,14.833333 -0.17942,14.833333 h 9.98355 9.98355 z"
         id="path26"
         inkscape:connector-curvature="0" />
      <path
         style="display:inline;fill:#fcfc02;stroke-width:0.666667"
         d="M 0,58.504605 V 20.342546 L 10.5,10.182296 21,0.0220464 58.499999,0.0110232 95.999998,0 v 48.345185 48.345186 l -16.166666,-0.17852 -16.166667,-0.17852 -0.333333,-5 -0.333333,-5 H 47.666666 32.333333 l -0.19471,5.166666 -0.19471,5.166667 H 15.971957 0 Z M 62.999999,42.999999 v -10 H 47.666666 32.333333 l -0.186356,9.30123 c -0.102496,5.115676 -0.03474,9.696327 0.150562,10.179224 0.267862,0.698038 3.448826,0.84126 15.519689,0.69877 l 15.182771,-0.179224 z m 43.328921,52.166665 c -0.19974,-0.825 -0.28046,-22.499999 -0.17938,-48.166665 L 106.33333,0.33333332 H 122.66666 139 l 0.33333,31.66666568 0.33333,31.666666 31.66667,0.333333 31.66667,0.333334 0.17852,16.166666 0.17852,16.166666 H 155.02455 106.69206 Z M 213.49561,48.499999 213.66666,0.33333332 261.83333,0.1622831 309.99999,-0.00876714 V 42.843667 85.696104 l -5.51392,5.48528 -5.51393,5.48528 h -42.82379 -42.82379 z m 53.97518,10.666666 0.19587,-4.833333 4.85011,-0.196212 4.85012,-0.196211 -0.18345,-10.470456 -0.18345,-10.470454 h -15.33333 -15.33333 l -0.18009,14.650895 c -0.0991,8.057992 -0.0335,15.032992 0.14574,15.5 0.24449,0.63712 2.90355,0.849104 10.65089,0.849104 h 10.32504 z"
         id="path24"
         inkscape:connector-curvature="0" />
      <path
         style="display:inline;fill:#9fc88f;stroke-width:0.666667"
         d="M 0,58.504605 V 20.342546 L 10.5,10.182296 21,0.0220464 58.499999,0.0110232 95.999998,0 v 48.345185 48.345186 l -16.166666,-0.17852 -16.166667,-0.17852 -0.333333,-5 -0.333333,-5 H 47.666666 32.333333 l -0.19471,5.166666 -0.19471,5.166667 H 15.971957 0 Z M 62.999999,42.999999 v -10 H 47.666666 32.333333 l -0.186356,9.30123 c -0.102496,5.115676 -0.03474,9.696327 0.150562,10.179224 0.267862,0.698038 3.448826,0.84126 15.519689,0.69877 l 15.182771,-0.179224 z m 43.328921,52.166665 c -0.19974,-0.825 -0.28046,-22.499999 -0.17938,-48.166665 L 106.33333,0.33333332 H 122.66666 139 l 0.33333,31.66666568 0.33333,31.666666 31.66667,0.333333 31.66667,0.333334 0.17852,16.166666 0.17852,16.166666 H 155.02455 106.69206 Z M 213.49561,48.499999 213.66666,0.33333332 261.83333,0.1622831 309.99999,-0.00876714 V 26.995616 53.999999 h -16.3164 -16.3164 l -0.1836,-10.5 -0.1836,-10.5 h -15.33333 -15.33333 v 15.333333 15.333333 l 10.5,0.183595 10.5,0.183596 v 16.316402 16.316406 h -27.00439 -27.00438 z"
         id="path22"
         inkscape:connector-curvature="0" />
      <path
         style="display:inline;fill:#88bb73;stroke-width:0.666667"
         d="M 0,58.740871 V 20.815079 L 10.459872,10.734756 20.919744,0.65443282 58.459982,0.49388307 96.000218,0.33333332 96.000111,48.499999 95.999998,96.666664 H 80.028038 64.056085 l -0.19471,-5.166667 -0.19471,-5.166666 -15.833333,-0.178733 -15.833333,-0.178734 v 5.3454 5.3454 H 16 0 Z m 63.270469,-5.665126 c 0.52014,-0.626731 0.70737,-4.006752 0.58163,-10.5 L 63.666665,32.999999 47.833332,32.821266 31.999999,32.642534 v 10.234288 c 0,5.628858 0.2,10.434288 0.444445,10.678732 0.244444,0.244445 7.10771,0.444445 15.251703,0.444445 11.809372,0 14.962559,-0.187126 15.574322,-0.924254 z m 43.395851,-4.575746 -3.3e-4,-48.16666568 h 15.99983 15.99983 l 5.1e-4,31.47654268 c 4.8e-4,30.437359 0.0431,31.499328 1.29001,32.166666 0.83523,0.447004 12.08321,0.690123 31.92867,0.690123 27.32392,0 30.68296,0.114103 31.04383,1.054525 0.22257,0.579989 0.40466,7.779988 0.40466,16.000001 V 96.666664 H 155 106.66666 Z m 107.32917,47.833332 c -0.003,-0.183334 -0.007,-21.792373 -0.009,-48.020082 l -0.005,-47.68674805 48.00897,-0.14658381 48.00898,-0.14658382 4e-5,26.83333268 2e-5,26.833333 h -15.98307 -15.98307 l -0.1836,-10.5 -0.18359,-10.5 -15.83333,-0.178733 -15.83334,-0.178732 v 15.607407 c 0,13.616919 0.13449,15.659014 1.05453,16.012065 0.57999,0.222562 5.37999,0.404659 10.66667,0.404659 h 9.61214 v 15.999999 16 h -26.66667 c -14.66666,0 -26.66869,-0.15 -26.67117,-0.333333 z"
         id="path20"
         inkscape:connector-curvature="0" />
      <path
         style="display:inline;fill:#4c992c;fill-opacity:1;stroke-width:0.666667"
         d="M 0,59.096857 V 21.502919 L 10.5,11.096384 21,0.68984945 58.333332,0.67830078 95.666665,0.66675211 V 48.666748 96.666744 l -15.806373,-4e-5 -15.80637,-4e-5 -0.193629,-5.5 -0.193628,-5.5 h -15.999999 -16 l -0.08519,5.333333 -0.08519,5.333334 L 15.748144,96.512064 0,96.690797 Z M 63.666665,42.999999 V 32.333332 h -15.999999 -16 l -0.185275,9.970712 c -0.101902,5.483891 -0.03423,10.364338 0.150388,10.845437 0.266684,0.694969 3.592776,0.837988 16.185275,0.695955 l 15.849611,-0.178771 z m 43.008735,5.666666 0.0253,-47.99999835 h 15.97652 15.97652 L 138.82687,32.499999 139,64.333332 l 31.66667,0.333333 31.66667,0.333333 0.33333,15.55704 c 0.18333,8.556373 0.20833,15.681373 0.0555,15.833333 -0.15272,0.15196 -21.83145,0.276293 -48.17489,0.276293 H 106.6501 Z M 214,48.674315 V 0.66666665 h 47.99999 48 V 27.333333 53.999999 h -15.65396 -15.65397 l -0.35053,-1.5 c -0.1928,-0.825 -0.42352,-5.7 -0.51271,-10.833333 l -0.16216,-9.333334 h -16 -16 v 16 16 l 10.66667,0.333333 10.66666,0.333333 v 15.666666 15.666667 l -26.5,0.174313 L 214,96.681964 Z"
         id="path18"
         inkscape:connector-curvature="0" />
      <path
         style="display:none;fill:#4c992c;stroke-width:0.666667"
         d="M 0.16116183,58.166665 C 0.29301295,29.193418 0.52146204,20.333333 1.1366592,20.333333 c 0.9614294,0 20.1161458,-18.8583053 19.6391798,-19.33527149 -0.182267,-0.1822672 16.743605,-0.30771066 37.613048,-0.27876326 20.869445,0.0289473 37.569444,0.20394732 37.111111,0.38888885 -1.22052,0.4924911 -1.22052,93.9577969 0,94.4502899 0.458333,0.18494 -6.366667,0.36064 -15.166666,0.39044 l -16,0.0542 0.22258,-5.09432 c 0.162383,-3.716546 -0.01792,-5.246766 -0.666667,-5.658013 -0.489085,-0.310026 -7.827513,-0.568286 -16.307616,-0.5739 -12.681862,-0.0084 -15.561106,0.16178 -16.222587,0.958814 -0.5131,0.618246 -0.723643,2.67006 -0.58163,5.668173 l 0.222587,4.699133 -15.505504,-0.0015 -15.50550467,-0.0015 z M 64.517073,43.383229 c 0.139504,-8.313805 -0.021,-11.080036 -0.666667,-11.489791 -1.434441,-0.91033 -31.455911,-0.687935 -32.38374,0.239894 -1.127801,1.127801 -1.117473,20.615861 0.01152,21.744857 0.602837,0.602836 4.931613,0.765701 16.833333,0.633333 l 16.021813,-0.17819 z M 107,48.333332 V 0.66666665 l 15.66666,-1.7242e-4 15.66667,-1.724e-4 -0.17955,31.78619417 c -0.14189,25.116841 -0.002,31.898888 0.66666,32.323296 0.46542,0.295406 14.86046,0.541696 31.98898,0.547311 l 31.14276,0.01021 0.19058,15.333892 0.19057,15.3339 -47.66667,-5.67e-4 L 107,95.999997 Z m 107.33333,0 V 0.66666665 h 47.83333 47.83333 l -0.0102,26.49999935 c -0.007,17.355501 -0.23322,26.154924 -0.65646,25.499999 -0.44379,-0.686709 -0.64945,-0.734928 -0.65646,-0.153912 -0.008,0.66346 -3.21199,0.80736 -14.84354,0.666667 l -14.83334,-0.179421 -0.18478,-10.305182 c -0.12946,-7.220217 -0.42882,-10.460233 -1,-10.823124 -1.40926,-0.895361 -31.4344,-0.652514 -32.34855,0.261639 -1.13559,1.135592 -1.13559,31.264408 0,32.4 0.55234,0.552341 3.95024,0.8 10.97609,0.8 h 10.1761 l 0.19057,15.333892 0.19057,15.3339 -26.33333,-5.67e-4 -26.33333,-5.6e-4 z M 309.1659,14.876936 c -0.10844,-6.8989816 -0.19733,-1.443603 -0.19754,12.123063 -2.1e-4,13.566667 0.0885,19.211288 0.19717,12.543603 0.10864,-6.667686 0.10881,-17.767685 3.7e-4,-24.666666 z"
         id="path16"
         inkscape:connector-curvature="0" />
      <path
         style="display:inline;fill:#3e911b;stroke-width:0.666667"
         d="m 0.31172003,58.666665 c 0,-20.716666 0.084535,-29.191666 0.18785552,-18.833333 0.10332054,10.358333 0.10332054,27.308333 0,37.666666 C 0.39625501,87.858331 0.31172003,79.383331 0.31172003,58.666665 Z M 9.1666665,95.502324 c 4.1249995,-0.11696 10.8749995,-0.11696 14.9999995,0 4.125,0.116967 0.75,0.212667 -7.5,0.212667 -8.2499995,0 -11.6249994,-0.0957 -7.4999995,-0.212667 z m 57.3749985,0.04227 c 0.481247,-0.19258 1.056247,-0.1689 1.27778,0.0526 0.221527,0.221526 -0.172226,0.379093 -0.875,0.350146 -0.77663,-0.032 -0.934602,-0.18996 -0.40278,-0.402773 z m 8.994567,-0.0424 c 3.961593,-0.118074 10.261593,-0.117627 13.999999,6.66e-4 3.738407,0.118614 0.4971,0.215214 -7.202899,0.214667 -7.7,-5.47e-4 -10.758694,-0.09759 -6.7971,-0.215653 z m 57.345878,-0.002 c 12.7685,-0.101354 33.4685,-0.1013 46,1.26e-4 12.53151,0.10142 2.08455,0.184347 -23.21545,0.18428 -25.3,-6.6e-5 -35.55304,-0.08305 -22.78455,-0.184406 z m 96.32843,4.93e-4 c 7.08247,-0.108067 18.48247,-0.107907 25.33333,3.6e-4 6.85087,0.10826 1.05612,0.19668 -12.87721,0.196487 -13.93333,-2e-4 -19.53858,-0.08878 -12.45612,-0.196847 z M 39.119199,0.83383838 C 49.451426,0.73056218 66.551426,0.73048458 77.119198,0.83366584 87.686971,0.93684711 79.233332,1.0213458 58.333332,1.0214407 37.433333,1.0215356 28.786973,0.93711457 39.119199,0.83383838 Z M 114.5,0.83533171 c 4.49166,-0.1153376 11.84166,-0.1153376 16.33333,0 4.49167,0.1153376 0.81667,0.20970469 -8.16667,0.20970469 -8.98333,0 -12.65833,-0.0943671 -8.16666,-0.20970469 z m 123.33333,-0.001733 c 13.29166,-0.10095927 35.04166,-0.10095927 48.33333,0 13.29167,0.10095933 2.41667,0.18356239 -24.16667,0.18356239 -26.58333,0 -37.45833,-0.0826031 -24.16666,-0.18356239 z"
         id="path14"
         inkscape:connector-curvature="0" />
    </g>
  </g>
</svg>
