<?xml version="1.0" encoding="UTF-8" standalone="no"?>
<!-- Created with Inkscape (http://www.inkscape.org/) -->

<svg
   version="1.1"
   width="999.99756"
   height="562.5"
   viewBox="0 0 999.99756 562.5"
   id="svg2720"
   xmlns="http://www.w3.org/2000/svg"
   xmlns:svg="http://www.w3.org/2000/svg">
  <defs
     id="defs2" />
  <path
     style="fill:#ffffff"
     d="M 999.99755,0 V 562.49999 H 0 V 0 Z"
     id="path3013" />
  <path
     id="path2693"
     style="fill:#000000"
     d="M 231.73242 154.32227 C 139.30233 154.32227 124.93164 214.96681 124.93164 233.40625 L 179.96875 233.40625 L 180.17578 232.69141 C 184.42529 218.07081 195.89993 201.92773 232.64258 201.92773 C 276.7812 201.92773 281.52734 237.37891 281.63281 246.57227 L 281.63672 247.37305 C 281.63232 248.67822 281.60645 251.3457 281.59766 252.22461 L 281.58789 252.53125 L 279.35547 252.52734 L 278.63477 252.52734 L 275.20312 252.52344 L 274.25391 252.52344 L 271.39258 252.51758 L 270.46094 252.51758 L 266.5332 252.51367 L 264.82227 252.51367 L 262.37109 252.51367 C 181.67 252.83886 115.57227 269.20953 115.57227 333.875 C 115.57227 367.89743 149.92388 408.22461 202.86914 408.22461 C 236.89596 408.22461 269.97315 394.4082 282.80078 383.91406 L 284.27344 402.50781 L 336.66016 402.50781 L 336.66016 270.79492 L 336.65234 268.57227 C 336.125 195.51766 308.92228 154.32227 231.73242 154.32227 z M 265.33203 296.56055 L 265.33789 296.56055 L 270.83984 296.56055 L 276.21875 296.56836 L 277.07031 296.56836 L 282.04492 296.56836 L 282.04492 309.99414 L 282.00586 311.66016 C 281.729 318.30029 279.77245 324.87012 276.63477 331.48828 C 270.17481 345.77489 246.30514 360.33398 216.20703 360.33398 C 190.17386 360.33398 171.83984 351.93944 171.83984 333.35938 C 171.83984 308.13039 200.68997 301.0166 221.99023 298.8457 C 243.18064 296.70997 256.67482 296.53858 265.33203 296.56055 z " />
  <path
     style="fill:#000000"
     d="M 455.66894,160.18506 H 368.65283 V 402.5083 H 425.49609 V 224.88574 L 474.74121,402.5083 H 527.11523 L 576.3999,224.88574 V 402.5083 H 633.18163 L 633.09374,160.18506 H 546.16113 L 500.91503,334.40185 C 496.8413,315.27246 455.66894,160.18506 455.66894,160.18506 Z"
     id="path2695" />
  <path
     style="fill:#000000"
     d="M 776.2456,154.27002 C 707.8623,154.27002 659.63232,205.7959 659.63232,281.25439 659.63232,353.51806 707.58105,408.22119 776.2456,408.22119 833.61181,408.22119 878.72606,367.51025 890.04198,309.96826 H 835.25536 C 826.19384,338.24707 803.8081,357.31933 776.2456,357.31933 740.083,357.31933 712.8457,324.55371 712.8457,281.25439 712.8457,237.97705 740.0786,205.19824 776.2456,205.19824 803.66747,205.19824 825.93456,224.06396 835.11034,252.03076 H 889.9497 C 878.44481,194.77002 833.42284,154.27002 776.2456,154.27002 Z"
     id="path2691" />
</svg>
