<?xml version="1.0" encoding="UTF-8" standalone="no"?>
<svg xmlns="http://www.w3.org/2000/svg" xml:space="preserve" width="1000" height="136.16611" version="1.1" viewBox="0 0 1000 136.16611"><path d="M528.10923 16.939467h70.29093v18.300619h-48.2893v22.160896h42.86033v18.300611h-42.86033v25.163337h51.00379v18.30061h-73.00542Z"/><path d="M688.59006 119.16554c-2.47639-7.52995-4.97366-14.91691-7.45003-22.160892h-41.39435c-2.47637 7.339302-4.95274 14.726262-7.42912 22.160892h-23.57318c12.79689-35.502539 26.35347-69.818435 40.13008-102.226073h23.70529c14.54952 34.810008 27.9753 69.367834 40.15595 102.226073Zm-42.55819-40.461507h28.71641c-4.75196-13.606813-9.60817-26.839853-14.30301-39.434216-4.95276 13.058244-9.74639 26.18534-14.4134 39.434216Z"/><path d="M746.86649 81.989377v37.176033h-21.71937V16.93959h37.28771c13.42756 0 23.73824 2.809804 30.93055 8.435759 7.19307 5.626016 10.78612 13.67691 10.78612 24.159849 0 6.767364-1.59464 12.534709-4.78939 17.301331-3.19393 4.766576-7.73854 8.435815-13.64555 11.008437 4.2872 6.768171 8.52324 13.561389 12.71365 20.374337 4.19122 6.812877 8.38237 13.799427 12.57278 20.946207h-25.28643a1026.3922 1024.3773 0 0 0-21.28882-37.176072h-2.14088Zm0-17.302134h14.28934c6.76178 0 11.90375-1.212083 15.433-3.643262 3.52217-2.432 5.28369-6.267735 5.28369-11.508836 0-5.241842-1.74182-9.103548-5.21286-11.579504-3.4773-2.476772-8.59407-3.714776-15.35584-3.714776h-14.43733Z"/><path d="M812.14038 16.939609h86.30058v19.158427h-32.14839v83.067494h-22.00379V36.098036h-32.1484Z"/><path d="M978.00031 119.16553V75.272727h-44.42792v43.892803H911.5727V16.939609h21.99969v39.17469h44.42792v-39.17469h21.99968V119.16553Z"/><path d="M0 0v136.1661h136.26311V0Zm94.985389 96.09251c-2.329868 3.288931-5.639138 5.82039-9.945418 7.60398-4.306309 1.7836-9.47455 2.67597-15.51651 2.67597H39.005979V29.774815h28.752499c8.468077 0 15.037313 1.696687 19.688847 5.091278 4.651506 3.394514 6.981473 8.266264 6.981473 14.623195 0 3.644673-.833843 6.798535-2.50257 9.483918-1.668734 2.674738-4.133692 4.803519-7.394791 6.376916 4.517674 1.495913 7.970223 3.873631 10.368249 7.124955 2.396808 3.250107 3.595764 7.191884 3.595764 11.83215-.01867 4.574639-1.178975 8.505769-3.509984 11.785283ZM75.50783 58.656117c2.118495-1.744771 3.17425-4.189411 3.17425-7.335066 0-6.069336-4.133656-9.109329-12.400964-9.109329h-11.76685v19.062857h11.76685c4.037359.009416 7.10708-.87239 9.226714-2.618462Zm-7.231504 14.624504H54.523687v20.673762h13.541195c4.651612 0 8.228614-.872452 10.732238-2.62787 2.502547-1.744855 3.749688-4.26698 3.749688-7.555917 0-6.989793-4.76663-10.49006-14.270482-10.49006Z"/><path d="M170.31485 0v136.1661h136.26312V0Zm94.9854 96.09251c-2.32987 3.288931-5.63914 5.82039-9.94542 7.60398-4.3063 1.7836-9.47455 2.67597-15.51651 2.67597h-30.51748V29.774815h28.7525c8.46807 0 15.03731 1.696687 19.68884 5.091278 4.65152 3.394514 6.98148 8.266264 6.98148 14.623195 0 3.644673-.83385 6.798535-2.50257 9.483918-1.66874 2.674738-4.1337 4.803519-7.39479 6.376916 4.51767 1.495913 7.97021 3.873631 10.36825 7.124955 2.39681 3.250107 3.59575 7.191884 3.59575 11.83215-.01866 4.574639-1.17896 8.505769-3.50998 11.785283Zm-19.47756-37.436393c2.11849-1.744771 3.17425-4.189411 3.17425-7.335066 0-6.069336-4.13367-9.109329-12.40096-9.109329h-11.76686v19.062857h11.76686c4.03735.009416 7.10708-.87239 9.22671-2.618462Zm-7.2315 14.624504h-13.75264v20.673762h13.5412c4.6516 0 8.2286-.872452 10.73222-2.62787 2.50255-1.744855 3.74971-4.26698 3.74971-7.555917 0-6.989793-4.76664-10.49006-14.27049-10.49006Z"/><path d="M340.6215 136.1661h136.25717V0H340.6215Zm97.85813-34.63598c-3.17691 1.75427-6.85078 3.13508-11.03462 4.14254-4.18375 1.01567-8.58727 1.52409-13.20224 1.52409-6.13178 0-11.64917-.89122-16.55192-2.67481-4.90282-1.7836-9.0479-4.35381-12.44448-7.720222-3.38731-3.355761-5.9873-7.468996-7.79073-12.340584-1.80468-4.861103-2.7058-10.34687-2.7058-16.43619 0-5.944906.93997-11.323794 2.8103-16.119192 1.87164-4.794096 4.57743-8.908464 8.11736-12.340583 3.53174-3.433337 7.77197-6.050575 12.71358-7.872915 4.94159-1.822333 10.47767-2.73346 16.60945-2.73346 4.2508 0 8.27006.441511 12.06032 1.313899 3.79016.872468 7.3019 2.14876 10.54471 3.836024v14.910962c-2.95494-1.956192-6.1694-3.442682-9.6236-4.458416-3.46363-1.016881-7.09987-1.525236-10.92889-1.525236-5.26708 0-9.75746.978135-13.47132 2.943664-3.71264 1.956185-6.563 4.795399-8.5485 8.505776-1.9868 3.711596-2.97486 8.227434-2.97486 13.548815 0 5.322599.95052 9.8585 2.86905 13.598208 1.90926 3.749109 4.68194 6.597746 8.32883 8.553938 3.64575 1.956177 8.05982 2.943664 13.25051 2.943664 7.93516 0 15.25591-2.06186 21.96228-6.194995v14.595023Z"/></svg>