<?xml version="1.0" encoding="UTF-8" standalone="no"?>
<svg viewBox="0 0 511.99988 328.09352" version="1.1" id="svg33" xmlns="http://www.w3.org/2000/svg" xmlns:svg="http://www.w3.org/2000/svg">
  <g id="g962">
    <path d="M 370.95654,270.50814 318.75522,270.61055 H 287.91235 A 24.464926,24.464926 0 0 1 268.68747,230.94892 V 230.94892 C 269.06297,230.47669 269.45555,230.01584 269.8652,229.56637 L 274.56474,224.04754 A 135.01225,135.01225 0 0 0 370.95654,270.50814 Z M 376.73709,2.5597417e-5 A 135.18294,135.18294 0 0 0 265.93374,57.623456 H 266.42873 C 268.37454,57.526734 270.33743,57.492597 272.31738,57.492597 A 135.32518,135.32518 0 0 1 383.12073,270.49676 V 270.49676 A 135.32518,135.32518 0 0 0 376.73709,2.5597417e-5 Z" fill="#4c41e5" id="path7"/>
    <path d="M 383.05815,270.47969 H 370.95654 L 318.75522,270.5821 H 287.91235 A 24.464926,24.464926 0 0 1 268.68747,230.92047 V 230.92047 C 269.06297,230.44824 269.45555,229.98739 269.8652,229.53792 L 274.56474,224.01909 A 135.34224,135.34224 0 0 1 265.82564,57.714488 L 265.91667,57.58363 A 135.33087,135.33087 0 1 0 383.12073,270.474 Z" fill="#ff8585" id="path9"/>
    <path d="M 339.02128,124.17374 A 66.698215,66.698215 0 0 0 272.32307,57.475529 Q 269.37021,57.475529 266.43442,57.606388 H 265.93943 A 135.34793,135.34793 0 0 0 274.55905,224.0646 L 320.18329,170.58314 A 66.476324,66.476324 0 0 0 339.02128,124.17374 Z" fill="#ed3535" id="path11"/>
    <path d="M 274.0413,57.492597 A 66.698215,66.698215 0 0 1 320.20605,170.59452 L 274.58181,224.07598 A 135.01225,135.01225 0 0 0 370.96223,270.52521 H 383.06384 383.12642 A 135.31949,135.31949 0 0 0 274.0413,57.492597 Z" fill="#18008e" id="path13"/>
  </g>
  <path d="M 373.79561,189.11959 C 393.97064,189.11959 415.08444,184.19246 415.08444,168.94456 415.08444,153.46338 395.17113,150.88034 372.15134,150.88034 H 346.11611 V 118.97352 H 372.17979 C 391.64932,118.97352 410.41904,114.99086 410.41904,102.54789 410.41904,89.644061 390.71055,85.88329 372.86822,85.88329 A 68.604203,68.604203 0 0 0 318.20334,109.1079 L 287.2296,87.055331 C 304.82728,64.763801 336.0286,50.454667 374.5068,50.454667 418.13971,50.454667 459.20096,64.530531 459.20096,96.437345 459.20096,115.66222 443.71979,131.6327 420.51224,134.46039 443.74254,138.20978 465.55615,149.7083 465.55615,173.87168 465.55615,206.71726 425.90591,224.54821 375.7016,224.54821 335.81808,224.54821 303.20577,209.75547 284.43605,186.77551 L 317.04837,165.41137 C 329.91805,180.46583 349.17707,189.11959 373.79561,189.11959 Z" fill="#ffffff" id="path19"/>
  <path d="M 93.05775,78.816909 V 170.05401 H 73.55977 V 159.55116 A 45.334076,45.334076 0 0 1 40.03144,171.18623 C 18.47386,171.18623 0,162.17403 0,136.51431 0,110.85458 18.47386,101.7286 40.03144,101.7286 A 45.334076,45.334076 0 0 1 73.55977,113.36366 V 78.816909 Z M 73.55977,136.52569 C 73.55977,123.18377 63.97862,118.05182 46.52887,118.05182 29.07912,118.05182 19.61176,123.17239 19.61176,136.52569 19.61176,149.77088 29.07912,154.89714 46.52887,154.89714 63.97862,154.89714 73.55977,149.75381 73.55977,136.52569 Z" fill="#18008e" id="path23"/>
  <path d="M 195.58854,102.87788 V 170.05401 H 176.0735 V 158.30516 A 62.527798,62.527798 0 0 1 136.95237,171.19761 C 119.04746,171.19761 102.28046,164.80828 102.05287,140.05888 L 102.28614,102.88926 H 121.9036 V 132.64543 C 121.9036,146.90337 126.69417,154.31681 142.77275,154.31681 A 48.440553,48.440553 0 0 0 176.09626,140.51404 V 102.87788 Z" fill="#18008e" id="path25"/>
  <path d="M 202.99061,136.52569 C 202.99061,111.77628 221.69774,101.73998 249.52517,101.73998 277.23881,101.73998 296.05973,111.77628 296.05973,136.52569 296.05973,161.1613 277.28433,171.19761 249.52517,171.19761 221.76601,171.19761 202.99061,161.13854 202.99061,136.52569 Z M 276.43659,136.52569 C 276.43659,122.50102 267.54387,118.05182 249.51948,118.05182 231.38699,118.05182 222.49427,122.50102 222.49427,136.52569 222.49427,150.44225 231.38699,154.89714 249.51948,154.89714 267.55525,154.89714 276.47642,150.44225 276.47642,136.52569 Z" fill="#18008e" id="path27"/>
</svg>