<?xml version="1.0" encoding="UTF-8" standalone="no"?>
<svg version="1.1" viewBox="0 0 508 327.91824" id="svg243" xmlns="http://www.w3.org/2000/svg" xmlns:svg="http://www.w3.org/2000/svg">
  <defs id="defs18">
    <style id="style7">.cls-1{fill:#b15ace;}.cls-2{fill:#ffb1fd;}.cls-3{fill:#fb7acc;}.cls-4{fill:#b8064c;}.cls-5{fill:#fff;}.cls-6{fill:#910000;}</style>
  </defs>
  <path class="cls-1" d="m 366.99942,270.33614 -52.16803,0.10247 h -29.86703 c -0.31596,0 -0.6362,0 -0.95643,0 a 24.470044,24.470044 0 0 1 -19.21396,-39.63626 v 0 0 c 0.37574,-0.47395 0.76856,-0.93508 1.17419,-1.37914 l 4.69674,-5.51654 a 134.92469,134.92469 0 0 0 96.33452,46.42947 z M 372.77642,-4.082e-7 C 326.98315,-4.082e-7 286.52709,22.762137 262.04424,57.58637 h 0.49529 c 1.94275,-0.09394 3.90684,-0.132363 5.88374,-0.132363 74.6868,0 135.23212,60.545323 135.23212,135.232113 a 134.60446,134.60446 0 0 1 -24.49993,77.63721 v 0 C 450.88757,266.99291 508,207.79256 508,135.24492 508.00427,60.54532 447.45041,-4.082e-7 372.77642,-4.082e-7 Z" id="path142"/>
  <path class="cls-2" d="m 379.09141,270.31052 -12.09199,0.0256 -52.16803,0.10247 h -29.86703 c -0.31596,0 -0.6362,0 -0.95643,0 a 24.470044,24.470044 0 0 1 -19.21396,-39.63626 v 0 0 c 0.37574,-0.47395 0.76856,-0.93508 1.17419,-1.37914 l 4.69674,-5.51654 A 135.25346,135.25346 0 0 1 261.92896,57.710193 l 0.0897,-0.132362 C 190.32067,60.921059 133.19543,120.1214 133.19543,192.66904 c 0,74.68253 60.54532,135.2492 135.22784,135.2492 45.79327,0 86.24933,-22.76214 110.73219,-57.58637 z" id="path144"/>
  <path class="cls-3" d="M 335.07863,124.09229 A 66.655359,66.655359 0 0 0 268.42327,57.436928 q -2.95041,0 -5.88374,0.132363 h -0.49529 a 135.262,135.262 0 0 0 8.63774,166.345919 l 45.59686,-53.42762 a 66.433331,66.433331 0 0 0 18.79979,-46.3953 z" id="path146"/>
  <path class="cls-4" d="m 270.14399,57.458277 a 66.655359,66.655359 0 0 1 46.13485,113.029313 l -45.59686,53.42762 a 134.92469,134.92469 0 0 0 96.31744,46.42093 l 12.09199,-0.0256 h 0.0641 a 134.60446,134.60446 0 0 0 24.49993,-77.63721 c 0,-74.11464 -59.61878,-134.288493 -133.5114,-135.215033 z" id="path148"/>
  <path class="cls-5" d="m 464.43128,187.59656 h -31.65179 v 31.88663 h -46.4252 V 187.59656 H 265.37466 V 160.86781 L 390.10742,55.361821 h 42.67207 v 98.003999 h 31.65179 z m -77.84642,-34.23074 v -53.22267 l -62.59481,53.22267 z" id="path23"/>
  <path class="cls-6" d="M 93.004101,78.764423 V 169.94533 H 73.512607 V 159.45878 C 66.219842,167.09313 54.482248,171.08536 40.003463,171.08536 18.46248,171.08536 -3.5800002e-7,162.08042 -3.5800002e-7,136.43619 -3.5800002e-7,110.79196 18.46248,101.67173 40.003463,101.67173 c 14.478785,0 26.216379,3.99224 33.509144,11.62658 V 78.764423 Z M 73.512607,136.43619 c 0,-13.33449 -9.572821,-18.46675 -27.010556,-18.46675 -17.437736,0 -26.899543,5.12372 -26.899543,18.46675 0,13.23628 9.461807,18.36 26.899543,18.36 17.437735,0 27.010556,-5.1408 27.010556,-18.36 z" id="path26"/>
  <path class="cls-6" d="m 195.47001,102.81176 v 67.13357 h -19.49149 v -11.74186 c -9.57282,7.52333 -22.79203,12.88189 -39.08974,12.88189 -17.8946,0 -34.64917,-6.3833 -34.87974,-31.11807 l 0.23057,-37.14699 h 19.61959 v 29.73894 c 0,14.24822 4.78641,21.65627 20.85782,21.65627 13.10819,0 27.24112,-6.72489 33.27858,-13.79136 v -37.61239 z" id="path28"/>
  <path class="cls-6" d="m 202.88233,136.43619 c 0,-24.73477 18.69305,-34.76446 46.50205,-34.76446 27.69372,0 46.50205,10.02969 46.50205,34.76446 0,24.61948 -18.80833,34.64917 -46.50205,34.64917 -27.809,0 -46.50205,-10.02969 -46.50205,-34.64917 z m 73.40159,0 c 0,-14.01765 -8.88966,-18.46675 -26.89954,-18.46675 -18.1209,0 -27.01483,4.4491 -27.01483,18.46675 0,13.90664 8.89393,18.36 27.01483,18.36 18.00988,-0.009 26.89954,-4.45336 26.89954,-18.36 z" id="path30"/>
</svg>