<?xml version="1.0" encoding="UTF-8" standalone="no"?>
<svg viewBox="0 0 508.00009 328.00074" version="1.1" id="svg33" xmlns="http://www.w3.org/2000/svg" xmlns:svg="http://www.w3.org/2000/svg">
  <defs id="defs5"/>
  <g id="g856">
    <path d="M 367.10494,270.4152 314.92352,270.51683 H 284.09006 A 24.475921,24.475921 0 0 1 264.89326,230.86979 V 230.86979 C 265.27155,230.39552 265.66113,229.93254 266.06765,229.49214 L 270.76523,223.97588 A 134.94222,134.94222 0 0 0 367.10494,270.4152 Z M 372.88092,3.2619e-5 A 135.13419,135.13419 0 0 0 262.11537,57.590437 H 262.61223 C 264.5545,57.494453 266.51935,57.460576 268.49549,57.460576 A 135.27534,135.27534 0 0 1 379.26102,270.39262 V 270.39262 A 135.27534,135.27534 0 0 0 372.88092,3.2619e-5 Z" fill="#007aff" id="path7"/>
    <path d="M 379.19892,270.39262 H 367.10494 L 314.92352,270.49425 H 284.09006 A 24.475921,24.475921 0 0 1 264.89326,230.84721 V 230.84721 C 265.27155,230.37293 265.66113,229.90996 266.06765,229.46956 L 270.76523,223.9533 A 135.29228,135.29228 0 0 1 262.02503,57.709006 L 262.11537,57.579145 A 135.28664,135.28664 0 1 0 379.28362,270.39262 Z" fill="#6fe84d" id="path9"/>
    <path d="M 335.17049,124.12994 A 66.675007,66.675007 0 0 0 268.49549,57.45493 Q 265.54257,57.45493 262.61223,57.584791 H 262.11537 A 135.30357,135.30357 0 0 0 270.75393,223.97588 L 316.36327,170.53538 A 66.454809,66.454809 0 0 0 335.17049,124.12994 Z" fill="#59c688" id="path11"/>
    <path d="M 270.21755,57.477515 A 66.675007,66.675007 0 0 1 316.36327,170.54102 L 270.75393,223.98153 A 134.94222,134.94222 0 0 0 367.09929,270.4152 H 379.19328 379.25538 A 135.27534,135.27534 0 0 0 270.2119,57.500099 Z" fill="#18008e" id="path13"/>
  </g>
  <path d="M 463.87375,165.36918 C 463.87375,199.60724 432.50957,224.94137 376.15002,224.94137 315.2397,224.94137 277.51234,191.40343 277.51234,137.46042 277.51234,83.517411 315.2397,49.979469 376.15002,49.979469 413.4144,49.979469 441.37398,60.769202 459.56011,77.645449 L 434.5591,103.69663 A 78.994836,78.994836 0 0 0 381.16942,84.499835 C 350.48841,84.499835 327.0796,95.521058 324.57838,130.69637 340.95212,117.32637 365.25865,110.99706 387.75844,110.99706 421.14393,110.96319 463.87375,125.03331 463.87375,165.36918 Z M 417.28763,165.8378 C 417.28763,148.71313 400.69369,142.62097 377.96806,142.62097 A 88.519837,88.519837 0 0 0 326.83118,158.80274 C 333.4202,182.51644 352.28387,190.46618 376.15002,190.46618 400.68804,190.46618 417.28199,182.74228 417.28199,165.8378 Z" fill="#ffffff" id="path19"/>
  <path d="M 93.031082,78.785963 V 169.99335 H 73.535038 V 159.50286 A 45.304451,45.304451 0 0 1 40.014032,171.13386 C 18.468445,171.13386 0,162.10007 0,136.47235 0,110.84462 18.468445,101.69791 40.014032,101.69791 A 45.304451,45.304451 0 0 1 73.535038,113.32891 V 78.785963 Z M 73.535038,136.47235 C 73.535038,123.13622 63.936633,118.00389 46.51836,118.00389 29.100085,118.00389 19.608965,123.13057 19.608965,136.47235 19.608965,149.7125 29.071857,154.83917 46.51836,154.83917 63.964871,154.83917 73.535038,149.69555 73.535038,136.47235 Z" fill="#18008e" id="path23"/>
  <path d="M 195.52505,102.83842 V 169.99335 H 176.02901 V 158.24942 A 62.485587,62.485587 0 0 1 136.92965,171.13386 C 119.03145,171.13386 102.26813,164.7481 102.04229,140.00682 L 102.27377,102.84971 H 121.89968 V 132.59347 C 121.89968,146.84426 126.68759,154.25762 142.79032,154.25762 A 48.308185,48.308185 0 0 0 176.10241,140.46416 V 102.83842 Z" fill="#18008e" id="path25"/>
  <path d="M 202.93841,136.47235 C 202.93841,111.73106 221.63836,101.69791 249.45113,101.69791 277.15099,101.69791 295.96385,111.73106 295.96385,136.47235 295.96385,161.10071 277.15099,171.13386 249.45113,171.13386 221.63836,171.13386 202.93841,161.10071 202.93841,136.47235 Z M 276.33795,136.47235 C 276.33795,122.45304 267.44531,118.00389 249.42854,118.00389 231.30451,118.00389 222.40623,122.4474 222.40623,136.47235 222.40623,150.38438 231.30451,154.83917 249.42854,154.83917 267.46789,154.82788 276.36053,150.38438 276.36053,136.47235 Z" fill="#18008e" id="path27"/>
</svg>