<?xml version="1.0" encoding="UTF-8"?>
<!-- Generator: Adobe Illustrator 24.3.0, SVG Export Plug-In . SVG Version: 6.00 Build 0)  -->
<svg version="1.1" id="Слой_1" xmlns="http://www.w3.org/2000/svg" xmlns:xlink="http://www.w3.org/1999/xlink" x="0px" y="0px" viewBox="0 0 512 108.9" style="enable-background:new 0 0 512 108.9;" xml:space="preserve">
<style type="text/css">
	.st0{fill:url(#SVGID_1_);}
	.st1{fill:url(#SVGID_2_);}
	.st2{fill:url(#SVGID_3_);}
	.st3{fill:url(#SVGID_4_);}
	.st4{fill:url(#SVGID_5_);}
	.st5{fill:url(#SVGID_6_);}
	.st6{fill:url(#SVGID_7_);}
	.st7{fill:url(#SVGID_8_);}
	.st8{fill:url(#SVGID_9_);}
	.st9{fill:url(#SVGID_10_);}
	.st10{fill:url(#SVGID_11_);}
	.st11{fill:url(#SVGID_12_);}
	.st12{fill:url(#SVGID_13_);}
	.st13{fill:url(#SVGID_14_);}
	.st14{fill:url(#SVGID_15_);}
	.st15{fill:url(#SVGID_16_);}
	.st16{fill:url(#SVGID_17_);}
	.st17{fill:url(#SVGID_18_);}
	.st18{fill:url(#SVGID_19_);}
	.st19{fill:url(#SVGID_20_);}
	.st20{fill:url(#SVGID_21_);}
	.st21{fill:url(#SVGID_22_);}
	.st22{fill:url(#SVGID_23_);}
	.st23{fill:url(#SVGID_24_);}
	.st24{fill:url(#SVGID_25_);}
	.st25{fill:url(#SVGID_26_);}
	.st26{fill:url(#SVGID_27_);}
	.st27{fill:url(#SVGID_28_);}
	.st28{fill:url(#SVGID_29_);}
	.st29{fill:url(#SVGID_30_);}
	.st30{fill:url(#SVGID_31_);}
	.st31{fill:url(#SVGID_32_);}
	.st32{fill:url(#SVGID_33_);}
	.st33{fill:url(#SVGID_34_);}
	.st34{fill:url(#SVGID_35_);}
	.st35{fill:url(#SVGID_36_);}
	.st36{fill:url(#SVGID_37_);}
	.st37{fill:url(#SVGID_38_);}
	.st38{fill:url(#SVGID_39_);}
	.st39{fill:url(#SVGID_40_);}
	.st40{fill:url(#SVGID_41_);}
	.st41{fill:url(#SVGID_42_);}
	.st42{fill:url(#SVGID_43_);}
	.st43{fill:url(#SVGID_44_);}
</style>
<g>
	<linearGradient id="SVGID_1_" gradientUnits="userSpaceOnUse" x1="191.7221" y1="0" x2="191.7221" y2="108.8671">
		<stop offset="0" style="stop-color:#57B9FF"/>
		<stop offset="1" style="stop-color:#2478FF"/>
	</linearGradient>
	<polygon class="st0" points="193.3,0 190.1,0 191.8,4.2  "/>
	<linearGradient id="SVGID_2_" gradientUnits="userSpaceOnUse" x1="489.1748" y1="-2.636513e-05" x2="489.1748" y2="108.8671">
		<stop offset="0" style="stop-color:#57B9FF"/>
		<stop offset="1" style="stop-color:#2478FF"/>
	</linearGradient>
	<rect x="466.3" y="81.5" class="st1" width="45.7" height="3.9"/>
	<linearGradient id="SVGID_3_" gradientUnits="userSpaceOnUse" x1="489.1748" y1="-2.636513e-05" x2="489.1748" y2="108.8671">
		<stop offset="0" style="stop-color:#57B9FF"/>
		<stop offset="1" style="stop-color:#2478FF"/>
	</linearGradient>
	<rect x="466.3" y="87.4" class="st2" width="45.7" height="3.9"/>
	<linearGradient id="SVGID_4_" gradientUnits="userSpaceOnUse" x1="453.6431" y1="0" x2="453.6431" y2="108.85">
		<stop offset="0" style="stop-color:#57B9FF"/>
		<stop offset="1" style="stop-color:#2478FF"/>
	</linearGradient>
	<polygon class="st3" points="466.3,97.1 435.9,97.1 397.9,0 396.9,0 395.3,4.3 436.2,108.8 440.5,108.8 439,105 466.3,105    466.3,102.9 438.2,102.9 436.7,99 466.3,99 466.3,97.1 512,97.1 512,93.2 466.3,93.2  "/>
	<linearGradient id="SVGID_5_" gradientUnits="userSpaceOnUse" x1="489.1748" y1="-2.636513e-05" x2="489.1748" y2="108.8671">
		<stop offset="0" style="stop-color:#57B9FF"/>
		<stop offset="1" style="stop-color:#2478FF"/>
	</linearGradient>
	<rect x="466.3" y="99" class="st4" width="45.7" height="3.9"/>
	<linearGradient id="SVGID_6_" gradientUnits="userSpaceOnUse" x1="489.1748" y1="-2.636513e-05" x2="489.1748" y2="108.8671">
		<stop offset="0" style="stop-color:#57B9FF"/>
		<stop offset="1" style="stop-color:#2478FF"/>
	</linearGradient>
	<rect x="466.3" y="105" class="st5" width="45.7" height="3.9"/>
	<linearGradient id="SVGID_7_" gradientUnits="userSpaceOnUse" x1="451.1086" y1="-2.636513e-05" x2="451.1086" y2="108.8671">
		<stop offset="0" style="stop-color:#57B9FF"/>
		<stop offset="1" style="stop-color:#2478FF"/>
	</linearGradient>
	<rect x="435.9" y="85.4" class="st6" width="30.5" height="2"/>
	<linearGradient id="SVGID_8_" gradientUnits="userSpaceOnUse" x1="451.1086" y1="0" x2="451.1086" y2="108.8671">
		<stop offset="0" style="stop-color:#57B9FF"/>
		<stop offset="1" style="stop-color:#2478FF"/>
	</linearGradient>
	<rect x="435.9" class="st7" width="30.5" height="81.5"/>
	<linearGradient id="SVGID_9_" gradientUnits="userSpaceOnUse" x1="451.1086" y1="-2.636513e-05" x2="451.1086" y2="108.8671">
		<stop offset="0" style="stop-color:#57B9FF"/>
		<stop offset="1" style="stop-color:#2478FF"/>
	</linearGradient>
	<rect x="435.9" y="91.3" class="st8" width="30.5" height="1.9"/>
	<linearGradient id="SVGID_10_" gradientUnits="userSpaceOnUse" x1="251.9344" y1="0" x2="251.9344" y2="108.8671">
		<stop offset="0" style="stop-color:#57B9FF"/>
		<stop offset="1" style="stop-color:#2478FF"/>
	</linearGradient>
	<polygon class="st9" points="260.2,23.7 245.8,0 243.7,0 260.2,27.2  "/>
	<linearGradient id="SVGID_11_" gradientUnits="userSpaceOnUse" x1="248.6255" y1="0" x2="248.6255" y2="108.8671">
		<stop offset="0" style="stop-color:#57B9FF"/>
		<stop offset="1" style="stop-color:#2478FF"/>
	</linearGradient>
	<polygon class="st10" points="260.2,34.4 239.3,0 237.1,0 260.2,38.1  "/>
	<linearGradient id="SVGID_12_" gradientUnits="userSpaceOnUse" x1="255.1857" y1="0" x2="255.1857" y2="108.8671">
		<stop offset="0" style="stop-color:#57B9FF"/>
		<stop offset="1" style="stop-color:#2478FF"/>
	</linearGradient>
	<polygon class="st11" points="260.2,12.8 252.4,0 250.2,0 260.2,16.4  "/>
	<linearGradient id="SVGID_13_" gradientUnits="userSpaceOnUse" x1="258.501" y1="0" x2="258.501" y2="108.8671">
		<stop offset="0" style="stop-color:#57B9FF"/>
		<stop offset="1" style="stop-color:#2478FF"/>
	</linearGradient>
	<polygon class="st12" points="260.2,1.8 259.1,0 256.8,0 260.2,5.5  "/>
	<linearGradient id="SVGID_14_" gradientUnits="userSpaceOnUse" x1="281.6276" y1="-2.636513e-05" x2="281.6276" y2="108.8671">
		<stop offset="0" style="stop-color:#57B9FF"/>
		<stop offset="1" style="stop-color:#2478FF"/>
	</linearGradient>
	<polygon class="st13" points="260.2,45.3 298.7,108.8 303.1,108.8 260.2,38.1  "/>
	<linearGradient id="SVGID_15_" gradientUnits="userSpaceOnUse" x1="284.9384" y1="-2.636513e-05" x2="284.9384" y2="108.8671">
		<stop offset="0" style="stop-color:#57B9FF"/>
		<stop offset="1" style="stop-color:#2478FF"/>
	</linearGradient>
	<polygon class="st14" points="260.2,34.4 305.3,108.8 309.7,108.8 260.2,27.2  "/>
	<linearGradient id="SVGID_16_" gradientUnits="userSpaceOnUse" x1="288.1899" y1="-2.636513e-05" x2="288.1899" y2="108.8671">
		<stop offset="0" style="stop-color:#57B9FF"/>
		<stop offset="1" style="stop-color:#2478FF"/>
	</linearGradient>
	<polygon class="st15" points="260.2,23.7 311.8,108.8 316.2,108.8 260.2,16.5  "/>
	<linearGradient id="SVGID_17_" gradientUnits="userSpaceOnUse" x1="291.5051" y1="-2.636513e-05" x2="291.5051" y2="108.8671">
		<stop offset="0" style="stop-color:#57B9FF"/>
		<stop offset="1" style="stop-color:#2478FF"/>
	</linearGradient>
	<polygon class="st16" points="260.2,12.8 318.4,108.9 322.8,108.9 260.2,5.6  "/>
	<linearGradient id="SVGID_18_" gradientUnits="userSpaceOnUse" x1="337.3282" y1="0" x2="337.3282" y2="108.8629">
		<stop offset="0" style="stop-color:#57B9FF"/>
		<stop offset="1" style="stop-color:#2478FF"/>
	</linearGradient>
	<path class="st17" d="M263.4,0h-3.3v1.9l64.9,107h4.3v0h27.5l6.6-17.9h39.7l7,17.9h4.3l-29.7-75.9l-2.1,5.7L367.6,0l-26.4,67.6H372   l-1.2,3.3h24.5l0.7,1.7h-25.8l0.6-1.7h-30.9l-0.7,1.7h30.9l-1.2,3.3h28.4l0.7,1.7h-29.7l0.6-1.7h-31l-0.7,1.7h31.1l-1.2,3.3h32.2   l0.6,1.6h-33.4l0.6-1.6h-31.1h0h0l-0.6,1.6h0h31.2l-1.2,3.3h35.9l0.7,1.7h-37.2l-1.2,3.3H332l-2.7,6.8V0h-3.9v102.3l-2-3.3V0h-3.9   v92.6l-2-3.3V0h-3.9v82.9l-1.9-3.1V0h-3.9v73.4l-2-3.3V0h-3.9v63.7L263.4,0z M372,67.6l10.6-29l11.3,29H372z"/>
	<linearGradient id="SVGID_19_" gradientUnits="userSpaceOnUse" x1="349.2968" y1="-2.636513e-05" x2="349.2968" y2="108.8671">
		<stop offset="0" style="stop-color:#57B9FF"/>
		<stop offset="1" style="stop-color:#2478FF"/>
	</linearGradient>
	<polygon class="st18" points="365.3,86 334,86 333.3,87.6 364.6,87.6  "/>
	<linearGradient id="SVGID_20_" gradientUnits="userSpaceOnUse" x1="378.8654" y1="0" x2="378.8654" y2="108.8671">
		<stop offset="0" style="stop-color:#57B9FF"/>
		<stop offset="1" style="stop-color:#2478FF"/>
	</linearGradient>
	<polygon class="st19" points="385.8,30.1 374.1,0 371.9,0 384.8,32.9  "/>
	<linearGradient id="SVGID_21_" gradientUnits="userSpaceOnUse" x1="388.4717" y1="0" x2="388.4717" y2="108.8671">
		<stop offset="0" style="stop-color:#57B9FF"/>
		<stop offset="1" style="stop-color:#2478FF"/>
	</linearGradient>
	<polygon class="st20" points="392.1,13 387,0 384.8,0 391,15.9  "/>
	<linearGradient id="SVGID_22_" gradientUnits="userSpaceOnUse" x1="402.8896" y1="0" x2="402.8896" y2="108.85">
		<stop offset="0" style="stop-color:#57B9FF"/>
		<stop offset="1" style="stop-color:#2478FF"/>
	</linearGradient>
	<polygon class="st21" points="385.8,30 416.6,108.8 421,108.8 387.9,24.3 388.9,21.6 423,108.8 427.4,108.8 391,15.9 388.9,21.6    380.5,0 378.4,0 387.9,24.3  "/>
	<linearGradient id="SVGID_23_" gradientUnits="userSpaceOnUse" x1="412.6602" y1="0" x2="412.6602" y2="108.85">
		<stop offset="0" style="stop-color:#57B9FF"/>
		<stop offset="1" style="stop-color:#2478FF"/>
	</linearGradient>
	<polygon class="st22" points="392.1,12.9 429.6,108.8 433.9,108.8 394.2,7.3 395.3,4.3 393.6,0 391.4,0 394.2,7.2  "/>
	<linearGradient id="SVGID_24_" gradientUnits="userSpaceOnUse" x1="184.9917" y1="0" x2="184.9917" y2="108.8671">
		<stop offset="0" style="stop-color:#57B9FF"/>
		<stop offset="1" style="stop-color:#2478FF"/>
	</linearGradient>
	<polygon class="st23" points="188.6,12.8 183.6,0 181.4,0 187.5,15.7  "/>
	<linearGradient id="SVGID_25_" gradientUnits="userSpaceOnUse" x1="175.3615" y1="0" x2="175.3615" y2="108.8671">
		<stop offset="0" style="stop-color:#57B9FF"/>
		<stop offset="1" style="stop-color:#2478FF"/>
	</linearGradient>
	<polygon class="st24" points="182.3,29.9 170.6,0 168.4,0 181.3,32.9  "/>
	<linearGradient id="SVGID_26_" gradientUnits="userSpaceOnUse" x1="180.1915" y1="0" x2="180.1915" y2="108.8671">
		<stop offset="0" style="stop-color:#57B9FF"/>
		<stop offset="1" style="stop-color:#2478FF"/>
	</linearGradient>
	<polygon class="st25" points="185.4,21.5 177,0 175,0 184.4,24.2  "/>
	<linearGradient id="SVGID_27_" gradientUnits="userSpaceOnUse" x1="189.8495" y1="0" x2="189.8495" y2="108.8671">
		<stop offset="0" style="stop-color:#57B9FF"/>
		<stop offset="1" style="stop-color:#2478FF"/>
	</linearGradient>
	<polygon class="st26" points="191.8,4.2 190.1,0 187.9,0 190.7,7.1  "/>
	<linearGradient id="SVGID_28_" gradientUnits="userSpaceOnUse" x1="132.168" y1="-2.636513e-05" x2="132.168" y2="108.8671">
		<stop offset="0" style="stop-color:#57B9FF"/>
		<stop offset="1" style="stop-color:#2478FF"/>
	</linearGradient>
	<polygon class="st27" points="125.9,97 135.9,108.9 138.4,108.9 126.7,95  "/>
	<linearGradient id="SVGID_29_" gradientUnits="userSpaceOnUse" x1="122.442" y1="-2.636513e-05" x2="122.442" y2="108.8671">
		<stop offset="0" style="stop-color:#57B9FF"/>
		<stop offset="1" style="stop-color:#2478FF"/>
	</linearGradient>
	<polygon class="st28" points="121.3,108.9 123.6,108.9 122,107  "/>
	<linearGradient id="SVGID_30_" gradientUnits="userSpaceOnUse" x1="151.3602" y1="-2.636513e-05" x2="151.3602" y2="108.8671">
		<stop offset="0" style="stop-color:#57B9FF"/>
		<stop offset="1" style="stop-color:#2478FF"/>
	</linearGradient>
	<polygon class="st29" points="167.2,71.1 136.1,71.1 135.5,72.8 166.6,72.8  "/>
	<linearGradient id="SVGID_31_" gradientUnits="userSpaceOnUse" x1="199.9143" y1="-2.636513e-05" x2="199.9143" y2="108.8671">
		<stop offset="0" style="stop-color:#57B9FF"/>
		<stop offset="1" style="stop-color:#2478FF"/>
	</linearGradient>
	<polygon class="st30" points="182.3,29.9 213.2,108.9 217.5,108.9 184.4,24.2  "/>
	<linearGradient id="SVGID_32_" gradientUnits="userSpaceOnUse" x1="204.6844" y1="-2.636513e-05" x2="204.6844" y2="108.8671">
		<stop offset="0" style="stop-color:#57B9FF"/>
		<stop offset="1" style="stop-color:#2478FF"/>
	</linearGradient>
	<polygon class="st31" points="185.4,21.5 219.6,108.9 223.9,108.9 187.5,15.7  "/>
	<linearGradient id="SVGID_33_" gradientUnits="userSpaceOnUse" x1="209.5614" y1="-2.636513e-05" x2="209.5614" y2="108.8671">
		<stop offset="0" style="stop-color:#57B9FF"/>
		<stop offset="1" style="stop-color:#2478FF"/>
	</linearGradient>
	<polygon class="st32" points="188.6,12.8 226.2,108.9 230.5,108.9 190.7,7.1  "/>
	<linearGradient id="SVGID_34_" gradientUnits="userSpaceOnUse" x1="225.9756" y1="0" x2="225.9756" y2="108.8544">
		<stop offset="0" style="stop-color:#57B9FF"/>
		<stop offset="1" style="stop-color:#2478FF"/>
	</linearGradient>
	<polygon class="st33" points="232.7,108.8 232.7,108.9 260.2,108.9 260.2,45.3 232.7,0 232.7,0 232.7,97.7 194.5,0 193.3,0    191.8,4.2  "/>
	<linearGradient id="SVGID_35_" gradientUnits="userSpaceOnUse" x1="169.605" y1="0" x2="169.605" y2="108.8671">
		<stop offset="0" style="stop-color:#57B9FF"/>
		<stop offset="1" style="stop-color:#2478FF"/>
	</linearGradient>
	<polygon class="st34" points="179.1,38.6 164,0 164,0 137.4,67.7 168.5,67.7 179.1,38.7 190.5,67.7 168.5,67.7 167.3,71.1    191.8,71.1 192.5,72.8 166.6,72.8 165.4,76.1 134.2,76.1 133.5,77.8 164.8,77.8 165.4,76.1 193.8,76.1 194.5,77.8 164.8,77.8    163.5,81.1 132.2,81.1 131.5,82.8 163,82.8 163.6,81.1 195.8,81.1 196.4,82.8 163,82.8 161.7,86.1 130.2,86.1 129.6,87.8    161.1,87.8 161.7,86.1 197.7,86.1 198.4,87.8 161.1,87.8 159.9,91.1 128.4,91.1 128.3,91.1 128.3,91.1 128.4,91.1 143.3,108.9    153.4,108.9 159.9,91.1 199.7,91.1 206.6,108.9 211,108.9 181.2,32.9  "/>
	<linearGradient id="SVGID_36_" gradientUnits="userSpaceOnUse" x1="87.4586" y1="-2.636513e-05" x2="87.4586" y2="108.8671">
		<stop offset="0" style="stop-color:#57B9FF"/>
		<stop offset="1" style="stop-color:#2478FF"/>
	</linearGradient>
	<polygon class="st35" points="81.9,60 122,107 123.6,103 81.8,54.1 81.8,60 51.4,24.3 51.4,27.2 81.9,62.8 81.9,68.7 51.4,33.1    51.4,36.2 81.9,71.6 81.9,68.7 116.3,108.9 121.2,108.9 81.9,62.8  "/>
	<linearGradient id="SVGID_37_" gradientUnits="userSpaceOnUse" x1="82.5987" y1="-2.636513e-05" x2="82.5987" y2="108.8671">
		<stop offset="0" style="stop-color:#57B9FF"/>
		<stop offset="1" style="stop-color:#2478FF"/>
	</linearGradient>
	<polygon class="st36" points="81.8,77.4 51.4,42.1 51.4,108.9 81.9,108.9 81.9,77.5 108.9,108.9 113.8,108.9 81.8,71.6  "/>
	<linearGradient id="SVGID_38_" gradientUnits="userSpaceOnUse" x1="91.1963" y1="-2.636513e-05" x2="91.1963" y2="108.8671">
		<stop offset="0" style="stop-color:#57B9FF"/>
		<stop offset="1" style="stop-color:#2478FF"/>
	</linearGradient>
	<polygon class="st37" points="125.9,97.1 81.8,45.1 81.8,51 51.4,15.2 51.4,18.3 81.9,54.1 81.9,51.1 124.3,101 123.6,103    128.5,108.9 131,108.9 124.4,101  "/>
	<linearGradient id="SVGID_39_" gradientUnits="userSpaceOnUse" x1="97.5288" y1="0" x2="97.5288" y2="108.8671">
		<stop offset="0" style="stop-color:#57B9FF"/>
		<stop offset="1" style="stop-color:#2478FF"/>
	</linearGradient>
	<polygon class="st38" points="81.8,42 51.4,6.1 51.4,9.2 81.9,45.1 81.9,42.1 126.7,95 128.2,91 99.9,57.5 143.7,0 138.8,0    97.3,54.4 96,52.9 136.3,0 131.4,0 93.4,49.8 92.1,48.3 128.9,0 124,0 89.5,45.2 88.3,43.7 121.6,0 116.7,0 85.7,40.7 84.4,39.1    114.2,0 109.3,0 81.8,36 81.8,0 51.4,0 81.8,36.1  "/>
	<linearGradient id="SVGID_40_" gradientUnits="userSpaceOnUse" x1="14.3919" y1="-2.636513e-05" x2="14.3919" y2="108.8671">
		<stop offset="0" style="stop-color:#57B9FF"/>
		<stop offset="1" style="stop-color:#2478FF"/>
	</linearGradient>
	<polygon class="st39" points="23.4,103.5 16,103.5 16,95 11.4,95 11.4,103.5 5.4,103.5 5.4,94.7 0.7,94.7 0.7,108.8 28.1,108.8    28.1,94.7 23.4,94.7  "/>
	<linearGradient id="SVGID_41_" gradientUnits="userSpaceOnUse" x1="14.3919" y1="-2.636513e-05" x2="14.3919" y2="108.8671">
		<stop offset="0" style="stop-color:#57B9FF"/>
		<stop offset="1" style="stop-color:#2478FF"/>
	</linearGradient>
	<polygon class="st40" points="23.4,77.7 16,77.7 16,69.2 11.4,69.2 11.4,77.7 5.4,77.7 5.4,68.9 0.7,68.9 0.7,83 28.1,83    28.1,68.9 23.4,68.9  "/>
	<linearGradient id="SVGID_42_" gradientUnits="userSpaceOnUse" x1="14.4022" y1="-2.636513e-05" x2="14.4022" y2="108.8671">
		<stop offset="0" style="stop-color:#57B9FF"/>
		<stop offset="1" style="stop-color:#2478FF"/>
	</linearGradient>
	<path class="st41" d="M19.4,40.9c-1.1,0-2.2,0.2-3.3,0.6c-0.9,0.3-1.7,0.9-2.3,1.6c-0.6,0.6-1.1,1.4-1.5,2.1   c-0.4,0.7-0.8,1.5-1.1,2.3c-0.3,0.8-0.6,1.5-0.9,2.1c-0.3,0.6-0.7,1.1-1.2,1.6c-0.4,0.4-1,0.6-1.6,0.6c-0.8,0-1.7-0.4-2.2-1   c-0.6-0.6-0.9-1.5-0.9-2.3c0-1.7,0.9-3.2,2.2-4.1L3,41.8c-1,0.9-1.7,2.1-2.2,3.4C0.3,46.5,0,47.9,0,49.3C0,51.4,0.8,53.5,2.4,55   c1.6,1.5,3.7,2.3,5.8,2.3c1.7,0.1,3.3-0.5,4.6-1.5c1.3-1.3,2.3-2.8,2.9-4.6c0.4-1.1,0.7-1.8,0.9-2.1c0.5-1.5,2-2.6,3.6-2.6   c1,0,2,0.3,2.8,1c0.8,0.6,1.2,1.6,1.2,2.6c0,1.1-0.4,2.2-1.2,3c-0.8,0.9-1.7,1.6-2.8,1.9l3.4,3.4c3.2-1.6,5.3-4.8,5.3-8.4   c0.1-2.5-0.8-4.9-2.6-6.6C24.3,41.7,21.9,40.8,19.4,40.9z"/>
	<linearGradient id="SVGID_43_" gradientUnits="userSpaceOnUse" x1="14.3898" y1="-2.636513e-05" x2="14.3898" y2="108.8671">
		<stop offset="0" style="stop-color:#57B9FF"/>
		<stop offset="1" style="stop-color:#2478FF"/>
	</linearGradient>
	<polygon class="st42" points="5.4,26.4 28.1,26.4 28.1,21.1 5.4,21.1 5.4,15.6 0.7,15.6 0.7,31.9 5.4,31.9  "/>
	<linearGradient id="SVGID_44_" gradientUnits="userSpaceOnUse" x1="14.3898" y1="0" x2="14.3898" y2="108.8671">
		<stop offset="0" style="stop-color:#57B9FF"/>
		<stop offset="1" style="stop-color:#2478FF"/>
	</linearGradient>
	<rect x="0.7" class="st43" width="27.4" height="5.4"/>
</g>
</svg>