<?xml version="1.0" encoding="UTF-8"?>
<svg width="1e3" height="990.8131714" xmlns="http://www.w3.org/2000/svg">
    <g transform="matrix(4.315285551 0 0 4.315285551 -1457.167419 -605.5053756)">
        <path d="m569.410156 140.3164098h-231.734375v229.605469h231.734375z" fill="#281e51"/>
        <g fill="#fff">
            <path d="m391.726563 325.8554728h6.023437c5.683594 0 9.609375 3.863281 9.609375 8.957031 0 5.042969-3.925781 8.960938-9.609375 8.960938h-6.023437zm6.023437 16.691406c5.035156 0 8.214844-3.40625 8.214844-7.734375 0-4.25-3.179688-7.730469-8.214844-7.730469h-4.675781v15.464844z"/>
            <path d="m417 325.8554728h7.597656c2.222657 0 4.003907 0.691406 5.089844 1.765625 0.851563 0.84375 1.371094 2.046875 1.371094 3.378906 0 2.996094-2.25 4.710938-5.296875 5.121094l5.964844 7.652344h-1.703125l-5.761719-7.421875h-5.917969v7.421875h-1.34375zm7.441406 9.292969c3.023438 0 5.273438-1.511719 5.273438-4.148438 0-2.40625-1.914063-3.917969-5.195313-3.917969h-6.175781v8.066407z"/>
            <path d="m449.90625 325.7265668h1.292969l8.421875 18.046875h-1.472656l-2.296875-5.015625h-10.671875l-2.300782 5.015625h-1.394531zm5.375 11.828125-4.753906-10.371094-4.78125 10.371094z"/>
            <path d="m469.582031 325.8554728h1.269532l7.257812 10.597656 7.261719-10.597656h1.265625v17.917969h-1.34375v-15.5625l-7.15625 10.316406h-0.105469l-7.15625-10.316406v15.5625h-1.292969z"/>
            <path d="m505.476563 325.7265668h1.292968l8.421875 18.046875h-1.472656l-2.296875-5.015625h-10.671875l-2.300781 5.015625h-1.394531zm5.375 11.828125-4.753907-10.371094-4.78125 10.371094z"/>
            <path d="m439.515625 303.6171918h-2.15625v4.339843h2.179688c1.632812 0 2.628906-0.84375 2.628906-2.136718v-0.042969c0-1.410156-0.996094-2.160156-2.652344-2.160156"/>
            <path d="m391.0625 320.0664098h125.015625v-24.128906h-125.015625zm20.789063-4.183593h-13.457032v-16.429688h13.339844v3.875h-8.789062v2.488281h7.957031v3.589844h-7.957031v2.605469h8.90625zm34.914062-10.273438c0 3.875-3.011719 5.917969-7.132812 5.917969h-2.273438v4.691406h-4.597656v-16.429687h7.105469c4.195312 0 6.898437 2.136718 6.898437 5.773437zm24.992188 10.609375h-4.617188v-16.429687h4.617188zm29.644531 0.332031c-4.738281 0-8.554688-3.59375-8.554688-8.5v-0.046875c0-4.789062 3.71875-8.542968 8.742188-8.542968 3.390625 0 5.570312 1.40625 7.039062 3.425781l-3.460937 2.652344c-0.945313-1.171875-2.035156-1.921875-3.625-1.921875-2.320313 0-3.957031 1.945312-3.957031 4.339843v0.046875c0 2.464844 1.636718 4.390625 3.957031 4.390625 1.730469 0 2.746094-0.796875 3.742187-1.996093l3.460938 2.441406c-1.566406 2.136719-3.671875 3.710937-7.34375 3.710937"/>
            <path d="m479.789063 241.3515668c4.714843-2.109375 14.492187-7.382813 17.332031-8.585938 2.496094-1.054687 6.472656-2.839844 11.046875-2.609375 2.214844 0.113281 4.070312 1.1875 5.5 3.050781 3.820312 4.984375 3.402344 10.273438-2.21875 14.398438-3.265625 2.398437-8.472656 1.394531-9.007813-1.582031-0.480468-2.691407-2.933593-0.425782-5.8125 1.582031-1.707031 1.152344-18.601562 12.496094-26.871093 18-8.273438 5.503906-23.09375 16.613281-36.1875 21.84375-8.511719 3.914062-15.773438 3.605469-20.203125 3.453125-12.921875-0.445313-22-8.503906-22.4375-20.703125-0.523438-14.386719 21.417968-26.207031 22.878906-27.1875 4.816406-3.238281 17.664062-9.554688 22.613281-12.355469l-4.445312-0.113281c-17.558594 0.339844-21.890625-10.054688-21.324219-18.640625 0.390625-5.847656 5.273437-15.515625 32.839844-29.488281 1.71875-0.960938 14.722656-7.839844 24.171875-11.519532 6.554687-2.554687 13.320312-3.886718 16.648437-3.730468 7.246094 0.457031 13.457031 7.683593 13 13.445312-0.558594 7.042969-3.34375 12.261719-5.929687 13.332031-3.648438 1.503907-7.183594 0.414063-10.074219 0.414063-2.746094 0-5.015625 0.148437-13.375 3.613281-1.554688 0.644531-8.027344 3.371094-12.808594 5.6875-5.058594 2.449219-10.941406 5.824219-11.0625 7.117188-0.226562 2.484375 8.929688 0.328125 12.882813-0.113282 3.902343-0.433593 5.359375-1.128906 9.578125-1.128906 4.5625 0 13.914062 0.675781 10.492187 14.007813-1.316406 5.132812-0.914062 6.609375-2.851562 7.964843-1.359375 0.953125-2.308594 0.933594-4.953125 0.519532-2.402344-0.433594-10.371094 5.082031-24.066407 15.066406-14.195312 10.34375-18.921875 15.101562-19.324218 16.40625-0.609375 1.957031 0.453125 4.367187 20.828125-5.273438 20.5625-9.730468 28.429687-14.761718 33.140625-16.871093"/>
        </g>
    </g>
</svg>
