<?xml version="1.0" encoding="UTF-8"?>
<!-- Generator: Adobe Illustrator 26.0.1, SVG Export Plug-In . SVG Version: 6.00 Build 0)  -->
<svg version="1.1" id="Layer_1" xmlns="http://www.w3.org/2000/svg" xmlns:xlink="http://www.w3.org/1999/xlink" x="0px" y="0px" width="500px" height="120.1px" viewBox="0 0 500 120.1" style="enable-background:new 0 0 500 120.1;" xml:space="preserve">
<style type="text/css">
	.st0{fill:#DE0FC5;}
</style>
<g>
	<path class="st0" d="M23.6,51.8c0-3.3,2.6-7.2,5.9-7.2h59c3.3,0,5.9,2.6,5.9,5.9v9.8H23.6V51.8z M29.5,119.3h88.4V95.6H29.4   c-3.2,0-5.8-2.7-5.8-5.9V78.6h94.3V50.4c0-16.3-13.2-29.5-29.5-29.5c0,0,0,0,0,0h-59C13.2,21,0,34.2,0,50.4v39.3   C0,106,13.2,119.2,29.5,119.3"/>
	<path class="st0" d="M264.4,96.2L221.8,21h-62.2V0h-23.6v89.7c0,16.3,13.2,29.5,29.5,29.5h49.2V95.6h-49.2c-3.3,0-5.9-2.6-5.9-5.9   V44.6h48l35.3,61.9c5.6,11.9,19.8,17,31.7,11.4c5-2.4,9-6.4,11.4-11.4L334.7,21H307L264.4,96.2z"/>
	<path class="st0" d="M409.9,40.8h-17.2c-6.8,0-12.3,5.5-12.3,12.3v13.6c0,6.8,5.5,12.3,12.3,12.3h17.3L429,59.9L409.9,40.8z"/>
	<path class="st0" d="M499.9,53.1c0-6.8-5.5-12.3-12.3-12.3h-28.4V12.4c0-6.8-5.5-12.3-12.3-12.3h-13.6c-6.8,0-12.3,5.5-12.3,12.3   v17.2l19.1,19.1l11.1,11.1L440.2,71l-19.1,19.1v17.2c0,6.8,5.5,12.3,12.3,12.3H447c6.8,0,12.3-5.5,12.3-12.3V79h28.4   c6.8,0,12.3-5.5,12.3-12.3L499.9,53.1L499.9,53.1z"/>
</g>
</svg>