<?xml version="1.0" encoding="UTF-8" standalone="no"?>
<!-- Generator: Adobe Illustrator 16.0.0, SVG Export Plug-In . SVG Version: 6.00 Build 0)  -->

<svg
   version="1.1"
   width="512"
   height="512"
   xml:space="preserve"
   viewBox="0 0 512 512"
   id="svg22753"
   xmlns="http://www.w3.org/2000/svg"
   xmlns:svg="http://www.w3.org/2000/svg"><defs
     id="defs1437" /><path
     id="rect2749"
     style="fill:#0172f0;fill-opacity:1"
     d="M 0,0 H 512 V 512 H 0 Z" /><path
     d="M 133.64635,361.13814 V 314.58409 C 133.66033,310.97808 133.27842,307.62899 132.11507,304.62975 131.04125,301.84205 129.48903,299.38783 127.50361,297.33175 125.59867,295.35872 123.3533,293.82269 120.82911,292.76703 118.24333,291.6864 115.47767,291.13894 112.60897,291.13894 109.69137,291.14056 106.89945,291.69049 104.31245,292.77725 101.77429,293.84316 99.514949,295.38899 97.596043,297.36775 95.604039,299.41852 94.039926,301.87683 92.939008,304.67516 91.753899,307.69445 90.993399,311.03905 90.988887,314.61848 L 90.98683,361.13771 H 70.430714 L 70.42989,313.68761 C 70.449199,307.55943 71.698764,301.76308 73.84681,296.45693 75.948453,291.27434 78.981017,286.69449 82.860311,282.8409 86.69854,279.04011 91.215966,276.08016 96.290214,274.04371 101.38459,272.0052 106.86333,270.96548 112.57776,270.95649 118.30245,270.95649 123.78364,271.98965 128.87516,274.02365 133.97362,276.0646 138.48983,279.02783 142.29849,282.8319 146.17244,286.6896 149.18898,291.27434 151.26271,296.45938 153.38611,301.80972 154.24641,307.61795 154.21683,313.73097 V 361.13814 Z"
     id="path25719"
     style="fill:#ffffff" /><path
     d="M 201.4405,363.49252 C 176.68016,363.49252 156.54761,342.73886 156.54761,317.229 156.54761,291.71258 176.68016,270.95566 201.4405,270.95566 226.19062,270.95566 246.32685,291.71258 246.32685,317.229 246.32685,319.58828 246.15245,321.95863 245.80608,324.29131 L 245.69964,324.98979 H 175.59483 L 175.89451,325.93906 C 179.52956,337.30013 189.79972,344.93693 201.44008,344.93693 207.76406,344.93693 213.72079,342.70162 218.6262,338.47815 218.6262,338.47815 219.9383,337.34964 220.10289,337.19377 H 241.95201 L 241.3375,338.42291 C 233.58311,353.88145 218.29048,363.49252 201.4405,363.49252 M 201.4405,289.50798 C 189.79972,289.50798 179.53201,297.14149 175.89494,308.51199 L 175.59525,309.46045 H 227.27143 L 226.97175,308.51199 C 223.33878,297.14191 213.0809,289.50798 201.4405,289.50798"
     id="path25721"
     style="fill:#ffffff" /><path
     id="path25723"
     d="M 243.55535,273.30676 V 272.78098 H 265.80949 C 268.52858,294.08906 275.51308,327.8732 281.55071,343.14599 287.94104,327.8732 295.39544,294.08784 298.12271,272.78098 H 316.58261 C 319.42677,294.08906 326.76635,326.45787 333.27272,343.14599 339.3116,326.45787 346.17348,294.08784 349.01722,272.78098 H 371.14999 V 273.30841 C 366.0616,306.57454 356.35434,340.77893 348.06792,361.13814 H 320.37357 C 315.75881,350.01233 310.19476,332.96577 307.35348,317.69627 304.63071,332.96577 298.59632,350.95996 294.45272,361.13814 H 266.7551 C 257.04127,338.8861 246.4897,301.56424 243.55535,273.30676"
     style="fill:#ffffff" /><path
     d="M 370.06188,357.25957 V 340.38364 H 370.98971 C 375.99626,341.90128 386.82172,343.99584 394.61989,343.99584 H 399.1652 C 406.37481,343.99584 411.84833,341.78548 411.84833,334.45147 411.84833,328.98454 407.07466,326.77703 401.83565,325.37684 L 388.21774,321.77041 C 378.20877,319.21226 370.06188,312.22523 370.06188,297.21269 370.06188,279.52867 384.61209,272.19547 402.29893,272.19547 H 406.84343 C 412.30876,272.19547 423.25375,273.59482 428.25579,275.45533 V 292.21301 H 427.32553 C 422.78514,290.93025 411.8475,289.53661 406.83893,289.53661 H 402.76553 C 396.36623,289.53661 390.89268,290.81282 390.89268,297.21269 390.89268,302.22177 394.61867,304.19645 399.16111,305.36011 L 412.77983,309.08359 C 425.92585,312.57425 432.79331,320.37184 432.79331,334.45147 432.79331,354.003 418.71294,361.33371 399.15947,361.33371 H 394.61783 C 387.7479,361.33371 376.34618,359.47401 370.06188,357.25957"
     id="path25725"
     style="fill:#ffffff" /><path
     d="M 481.31264,342.70122 C 481.31264,353.00092 472.95293,361.34884 462.64478,361.34884 452.3358,361.34884 443.97936,353.00009 443.97936,342.70122 443.97936,332.40151 452.33785,324.05523 462.64478,324.05523 472.95251,324.05523 481.31264,332.40397 481.31264,342.70122"
     id="path25727"
     style="fill:#ffffff" /><path
     d="M 146.93018,223.90272 C 140.26254,233.41005 129.55058,239.09191 118.19266,239.09191 101.66696,239.09191 87.106705,227.01596 83.57359,210.381 L 83.444556,209.77573 H 144.69928 161.82903 164.22306 C 164.70713,206.50553 164.56988,202.93946 164.56988,202.93946 L 164.56701,202.94603 C 164.56701,202.84397 164.57441,202.73663 164.57441,202.6309 164.574,176.34272 143.76607,154.95164 118.19266,154.95164 92.625417,154.95164 71.819946,176.34272 71.819946,202.6313 71.819946,228.93136 92.625417,250.32081 118.19307,250.32081 135.61253,250.32081 151.41172,240.41432 159.43253,224.46702 L 160.57859,222.14468 H 148.08446 C 147.64888,222.8561 147.2314,223.4745 146.93018,223.90272 M 83.040619,197.9883 C 85.319192,179.84937 100.42926,166.17807 118.19266,166.17807 135.96138,166.17807 151.07515,179.84937 153.34306,197.9883 L 153.41537,198.54315 H 82.973235 Z"
     id="path25713-5"
     style="fill:#ffffff" /><path
     d="M 222.47257,250.34295 C 217.33379,250.34295 212.41665,249.42539 207.85936,247.61244 203.33575,245.80934 199.33659,243.19604 195.96656,239.84717 192.52717,236.44134 189.85027,232.38596 188.00969,227.80072 186.10183,223.01306 185.33282,217.79303 185.35743,212.28042 L 185.35659,156.79942 H 196.07325 L 196.0712,211.37886 C 196.05565,215.64774 196.57721,219.64164 197.98193,223.25114 199.31485,226.68689 201.24692,229.72556 203.72725,232.28392 206.13905,234.76977 208.98215,236.70484 212.17617,238.03629 215.41651,239.3845 218.87479,240.0697 222.4492,240.0697 226.10485,240.06559 229.57627,239.37918 232.81294,238.02685 236.02128,236.68351 238.87546,234.74313 241.29423,232.2536 243.77457,229.70834 245.72142,226.67297 247.08182,223.22902 248.5157,219.60066 249.38939,215.60718 249.39722,211.36862 V 156.79942 H 260.09294 L 260.0913,212.28943 C 260.07362,217.8168 258.94633,223.02986 257.01426,227.78475 255.14539,232.37244 252.45453,236.42414 249.01023,239.82832 245.61061,243.18253 241.60285,245.79417 237.09237,247.59523 232.53552,249.41351 227.61628,250.33762 222.47421,250.34417 H 222.47257 Z"
     id="path25715-7"
     style="fill:#ffffff" /><path
     d="M 283.09814,247.86282 V 195.34509 C 283.10387,191.43888 283.56862,187.61669 284.48131,183.98178 285.73709,178.9433 287.81923,174.44945 290.67064,170.62561 294.21649,165.86621 298.95854,162.12761 304.7653,159.51721 311.48923,156.50354 319.72786,154.97787 329.24812,154.97787 H 331.04836 V 166.39282 L 329.29332,166.39157 C 322.35036,166.39157 316.3932,167.30256 311.5558,169.09626 307.29866,170.6707 303.79635,172.95818 301.14797,175.89316 298.84104,178.45522 297.12543,181.56478 296.04961,185.13003 295.12874,188.1851 294.65411,191.62451 294.64303,195.3541 V 247.8616 H 283.09853 V 247.86282 Z"
     id="path25717-6"
     style="fill:#ffffff" /><path
     d="M 384.92513,155.13481 C 359.15857,155.13481 338.27051,176.48329 338.27051,202.81817 338.27051,229.15471 359.15857,250.50275 384.92513,250.50275 410.69206,250.50275 431.58014,229.15347 431.58014,202.81817 431.58014,176.48491 410.69206,155.13481 384.92513,155.13481 M 384.92513,237.49738 C 366.94886,237.49738 352.32327,221.94102 352.32327,202.81735 352.32327,183.69574 366.94886,168.13773 384.92513,168.13773 402.90055,168.13773 417.52736,183.69574 417.52736,202.81735 417.52736,221.94102 402.90055,237.49738 384.92513,237.49738"
     id="path25729-2"
     style="fill:#ffffff" /></svg>
