<?xml version="1.0" encoding="UTF-8"?>
<svg id="Layer_1" data-name="Layer 1" xmlns="http://www.w3.org/2000/svg" width="500" height="260" viewBox="0 0 500 260">
  <defs>
    <style>
      .cls-1 {
        stroke-width: 0px;
      }
    </style>
  </defs>
  <path class="cls-1" d="M334.85,0l-43.15,24.84v197.42l65.87,37.74,142.44-100v-64.84L334.85,0ZM356.26,236.45l-45.75-26.45v-39.35l45.75,26.45v39.35ZM402.34,200.97l-91.82-52.9v-39.35l91.82,52.58v39.68ZM448.73,165.16l-138.22-79.35v-39.35l138.22,79.35v39.35Z"/>
  <g>
    <polygon class="cls-1" points="22.71 92.58 52.56 92.58 52.56 75.81 22.71 75.81 22.71 59.68 62.3 59.68 62.3 42.26 3.24 42.26 3.24 119.68 22.71 119.68 22.71 92.58"/>
    <polygon class="cls-1" points="51.91 150.97 51.91 135.81 1.62 135.81 1.62 153.23 29.2 153.23 0 198.06 0 213.23 53.21 213.23 53.21 195.81 22.39 195.81 51.91 150.97"/>
    <polygon class="cls-1" points="158.01 102.26 130.43 102.26 130.43 42.26 110.97 42.26 110.97 119.68 158.01 119.68 158.01 102.26"/>
    <rect class="cls-1" x="75.28" y="42.26" width="19.47" height="77.42"/>
    <polygon class="cls-1" points="216.42 97.03 201.49 42.26 169.37 42.26 169.37 119.68 188.19 119.68 188.19 58.08 207.01 119.68 225.18 119.68 243.35 60.04 243.35 119.68 262.82 119.68 262.82 42.26 231.34 42.26 216.42 97.03"/>
    <polygon class="cls-1" points="215.77 213.23 262.82 213.23 262.82 197.1 233.94 197.1 233.94 181.61 256.33 181.61 256.33 165.48 233.94 165.48 233.94 151.94 262.82 151.94 262.82 135.81 215.77 135.81 215.77 213.23"/>
    <polygon class="cls-1" points="184.62 197.31 163.53 135.81 134.65 135.81 134.65 213.23 151.52 213.23 151.52 151.44 172.62 213.23 201.49 213.23 201.49 135.81 184.62 135.81 184.62 197.31"/>
    <path class="cls-1" d="M91.5,134.84c-19.14,0-30.82,11.94-30.82,33.23v12.9c0,21.29,11.68,33.23,30.82,33.23s30.82-11.94,30.82-33.23v-12.9c0-21.29-11.68-33.23-30.82-33.23ZM102.86,180c0,10.32-3.57,16.77-11.36,16.77s-11.36-6.45-11.36-16.77v-10.97c0-10.32,3.57-16.77,11.36-16.77s11.36,6.45,11.36,16.77v10.97Z"/>
  </g>
</svg>