<svg id="Layer_1" xmlns="http://www.w3.org/2000/svg" preserveAspectRatio="none" viewBox="311 137 1298 806"><defs><style>.cls-1{stroke-width:0px;}</style><style class="darkreader darkreader--sync" media="screen"/></defs><polygon class="cls-1" points="426 579 359 579 423 481 423 447 314 447 314 486 374 486 311 583 311 617 426 617 426 579"/><polygon class="cls-1" points="719 277.41 760 412 800 412 839 282.59 839 412 882 412 882 243 813 243 780.5 362.17 748 243 679 243 679 412 719 412 719 277.41"/><polygon class="cls-1" points="360 353 425 353 425 316 360 316 360 281 446 281 446 243 318 243 318 412 360 412 360 353"/><polygon class="cls-1" points="882 483 882 447 779 447 779 617 882 617 882 581 819 581 819 548 867 548 867 512 819 512 819 483 882 483"/><rect class="cls-1" x="474" y="243" width="42" height="169"/><polygon class="cls-1" points="654 374 594 374 594 243 552 243 552 412 654 412 654 374"/><path class="cls-1" d="m509,445c-41,0-67,26-67,73v28c0,47,26,73,67,73s67-26,67-73v-28c0-47-25-73-67-73Zm25,99c0,23-8,37-25,37s-24-14-24-37v-24c0-23,7-37,24-37s25,14,25,37v24Z"/><path class="cls-1" d="m844,724l-26-6c-13-3-18-8-18-15,0-9,8-15,21-15,11,0,20,5,22,13h44c-7-35-35-48-66-48-37,0-63,19-63,52,0,27,19,41,43,47l30,7c10,2,17,6,17,14,0,11-10,18-25,18s-25-7-28-20h-44c3,32,27,55,71,55,33,0,68-17,68-56,0-30-23-41-46-46Z"/><polygon class="cls-1" points="712 582.4 666 447 603 447 603 617 640 617 640 481.6 686 617 748 617 748 447 712 447 712 582.4"/><path class="cls-1" d="m384,655h-66v169h42v-49h24c43,0,65-22,65-60s-22-60-65-60Zm-2,83h-22v-47h22c17,0,25,8,25,24,0,15-8,23-25,23Z"/><path class="cls-1" d="m1100,137l-133,77v612l203,117,439-310v-201l-509-295Zm66,733l-141-82v-122l141,82v122Zm142-110l-283-164v-122l283,163v123Zm143-111l-426-246v-122l426,246v122Z"/><path class="cls-1" d="m687,756c0,20-8,32-27,32-18,0-27-12-27-32v-101h-42v103c0,44,26,68,69,68s69-24,69-68v-103h-42v101Z"/><polygon class="cls-1" points="513 655 471 655 471 824 478 824 513 824 576 824 576 786 513 786 513 655"/></svg>