<svg width="298" height="253" viewBox="0 0 298 253" fill="none" xmlns="http://www.w3.org/2000/svg">
<path d="M297.863 181.942H226.495L203.084 138.927L180.34 181.942H108.796L167.146 87.0504L143.045 51.2623H63.3768V73.2105H125.071V122.737H63.3768V181.915H0V0.026701L180.382 0L203.126 40.5954L225.331 0H297.607L239.534 86.9008L297.863 181.942ZM87.5792 218.745H79.2624V252.984H100.831V245.778H87.5792V218.745ZM118.464 252.984H126.786V218.745H118.464V252.984ZM145.935 252.984H154.113V239.668H167.344V232.868H154.097V225.806H168.46V218.745H145.919L145.935 252.984ZM192.192 238.813H206.411V232.19H192.192V225.705H207.234V218.761H184.212V253H208.105V245.928H192.192V238.813Z" fill="url(#paint0_linear_2_72)"/>
<defs>
<linearGradient id="paint0_linear_2_72" x1="28.999" y1="210.914" x2="268.763" y2="-28.8441" gradientUnits="userSpaceOnUse">
<stop offset="0.18" stop-color="#FF028B"/>
<stop offset="0.75" stop-color="#752493"/>
</linearGradient>
</defs>
</svg>