<?xml version="1.0" encoding="UTF-8" standalone="no"?><svg version="1.1" x="0" y="0" viewBox="0 0 1454.9621 250" xml:space="preserve" xmlns:xlink="http://www.w3.org/1999/xlink" xmlns="http://www.w3.org/2000/svg" xmlns:svg="http://www.w3.org/2000/svg"><defs><linearGradient id="d"><stop offset="0" stop-color="#a2190a"/><stop offset=".5" stop-color="#951409"/><stop offset="1" stop-color="#851209"/></linearGradient><linearGradient id="e"><stop offset="0" stop-color="#000" stop-opacity=".20132013"/><stop offset="1" stop-color="#ff0404" stop-opacity="0"/></linearGradient><linearGradient id="b" x1="-93.423042" y1="226.13449" x2="253.87993" y2="212.36667" gradientUnits="userSpaceOnUse" gradientTransform="matrix(.46228894 0 0 .45852019 428.15849 41.067963)"><stop stop-color="#90180b" stop-opacity=".69999999" offset="0"/><stop offset=".99080002" stop-color="#410807" stop-opacity=".3"/></linearGradient><linearGradient id="u" gradientUnits="userSpaceOnUse" x1="902.81458" y1="-344.08273" x2="898.88348" y2="-216.23422" gradientTransform="matrix(1 0 0 -1 0 -226.2845)"><stop offset="0" stop-color="#fff"/><stop offset=".25" stop-color="#fff" stop-opacity=".73000002"/><stop offset=".51999998" stop-color="#fff" stop-opacity=".44"/><stop offset=".75" stop-color="#fff" stop-opacity=".30000001"/><stop offset="1" stop-color="#fff" stop-opacity=".2"/></linearGradient><linearGradient id="a" gradientUnits="userSpaceOnUse" x1="903.33038" y1="-344.34064" x2="898.88348" y2="-216.23422" gradientTransform="matrix(1 0 0 -1 0 -226.2845)"><stop offset="0" stop-color="#fff"/><stop offset=".17958134" stop-color="#fff" stop-opacity=".73000002"/><stop offset=".45145735" stop-color="#fff" stop-opacity=".44"/><stop offset=".67812586" stop-color="#fff" stop-opacity=".30000001"/><stop offset="1" stop-color="#fff" stop-opacity=".23"/></linearGradient><linearGradient xlink:href="#a" id="g" gradientUnits="userSpaceOnUse" gradientTransform="matrix(1 0 0 -1 0 -226.2845)" x1="187.50011" y1="-358.58463" x2="183.95378" y2="-262.89908"/><linearGradient id="c" gradientUnits="userSpaceOnUse" x1="-1382.6" y1="144.5" x2="-1383.5" y2="138.60001" gradientTransform="translate(9523.9618 -756.19076) scale(6.4516)"><stop offset="0" stop-color="#eb1d1c"/><stop offset=".06414474" stop-color="#ea1312"/><stop offset=".22039473" stop-color="#c81816"/><stop offset=".44078946" stop-color="#a51410"/><stop offset=".65237695" stop-color="#720e0a"/><stop offset="1" stop-color="#570f05"/></linearGradient><linearGradient id="i" x1="74.140297" y1="279.983" x2="363.13199" y2="97.379501" gradientUnits="userSpaceOnUse" gradientTransform="matrix(.46233483 0 0 .45856335 428.15629 41.058025)"><stop stop-color="#DD972C"/><stop offset=".264617" stop-color="#F8CB45"/><stop offset=".654677" stop-color="#F2AC2F"/><stop offset="1" stop-color="#FDDB50"/></linearGradient><linearGradient id="h" x1="71.693001" y1="170.99699" x2="362.74301" y2="270.63501" gradientUnits="userSpaceOnUse" gradientTransform="matrix(.46233483 0 0 .45856335 428.15629 41.058025)"><stop stop-color="#DD972C"/><stop offset=".264617" stop-color="#B55727"/><stop offset=".485254" stop-color="#F2AC2F"/><stop offset=".825857" stop-color="#E5B544"/><stop offset="1" stop-color="#FDDB50"/></linearGradient><linearGradient id="j" x1="41.358501" y1="183.55" x2="390.69299" y2="183.55" gradientUnits="userSpaceOnUse" gradientTransform="matrix(.46233483 0 0 .45856335 428.15629 41.058025)"><stop offset=".2066" stop-color="#EE9322"/><stop offset=".4014" stop-color="#F2AC2F"/><stop offset=".6663" stop-color="#F8CB45"/><stop offset=".8749" stop-color="#FCDE54"/><stop offset="1" stop-color="#FEE55A"/></linearGradient><linearGradient id="k" x1="264.8829" y1="298.98349" x2="228.7016" y2="214.18379" gradientUnits="userSpaceOnUse" gradientTransform="matrix(.46233483 0 0 .45856335 428.15629 41.058025)"><stop offset="0" stop-color="#c16b15"/><stop offset=".07778147" stop-color="#b46418" stop-opacity=".98823529"/><stop offset=".43824145" stop-color="#b7651e" stop-opacity=".98039216"/><stop offset=".4596" stop-color="#BD6829" stop-opacity=".9612"/><stop offset=".51792926" stop-color="#CB8331" stop-opacity=".8833"/><stop offset=".60259461" stop-color="#ebad51" stop-opacity=".5411765"/><stop offset=".82969987" stop-color="#FEE153" stop-opacity=".2"/></linearGradient><linearGradient id="l" x1="216.49216" y1="333.23459" x2="232.34148" y2="166.60931" gradientUnits="userSpaceOnUse" gradientTransform="matrix(.46233483 0 0 .45856335 428.15629 41.058025)"><stop stop-color="#b0691b" stop-opacity=".8455056" offset="0"/><stop offset=".144" stop-color="#BF6C2A" stop-opacity=".6419"/><stop offset=".5534" stop-color="#DCA43C" stop-opacity=".4766"/><stop offset=".8458" stop-color="#F2CE4C" stop-opacity=".3585"/><stop offset=".9908" stop-color="#FEE153" stop-opacity=".3"/></linearGradient><linearGradient xlink:href="#b" id="f" gradientUnits="userSpaceOnUse" gradientTransform="matrix(6.4029721 0 0 6.4068681 9457.8586 -750.1008)" x1="-1387.0238" y1="144.71565" x2="-1387.6823" y2="144.79669"/><linearGradient xlink:href="#c" id="s" gradientUnits="userSpaceOnUse" gradientTransform="matrix(6.4029721 0 0 6.4068681 9457.8586 -750.1008)" x1="-1381.9218" y1="137.73476" x2="-1380.7423" y2="140.64291"/><linearGradient id="m" x1="-93.423042" y1="226.13449" x2="253.87993" y2="212.36667" gradientUnits="userSpaceOnUse" gradientTransform="matrix(.46228894 0 0 .45852019 428.15849 41.067963)"><stop stop-color="#B55727" stop-opacity=".7"/><stop offset=".418092" stop-color="#BF6C2A" stop-opacity=".6419"/><stop offset=".99080002" stop-color="#fee153" stop-opacity="0"/></linearGradient><linearGradient xlink:href="#d" id="o" x1="590.81854" y1="179.71603" x2="625.67358" y2="213.58473" gradientUnits="userSpaceOnUse"/><linearGradient xlink:href="#c" id="p" gradientUnits="userSpaceOnUse" gradientTransform="translate(9457.8586 -749.52676) scale(6.4029721)" x1="-1382.0177" y1="137.75922" x2="-1380.7423" y2="140.64291"/><filter id="q" x="-.05776698" y="-.06142684" width="1.1315804" height="1.1644448" color-interpolation-filters="sRGB"><feFlood result="flood" flood-opacity=".929412" flood-color="rgb(151,0,0)"/><feGaussianBlur result="blur" in="SourceGraphic" stdDeviation="1.2"/><feOffset result="offset" in="blur" dx=".8" dy="1.95"/><feComposite result="comp1" operator="in" in="flood" in2="offset"/><feComposite result="comp2" operator="over" in="SourceGraphic" in2="comp1"/></filter><filter id="n" x="-.11810812" y="-.10193861" width="1.2362162" height="1.2038772" color-interpolation-filters="sRGB"><feGaussianBlur stdDeviation=".22798953"/></filter><radialGradient xlink:href="#e" id="t" cx="655.52362" cy="64.882957" fx="655.52362" fy="64.882957" r="55.28017" gradientTransform="matrix(.22328631 1.1578843 -1.5175226 .29299518 608.39463 -720.49884)" gradientUnits="userSpaceOnUse"/><clipPath clipPathUnits="userSpaceOnUse" id="r"><path d="M595.59766 29.910156C583.72848 31.99718 572.76785 37.718234 564.5 46.724609c-7.04647 7.939686-13.29928 16.373269-18.75781 25.503907l5.95508 4.566406c1.68195-2.453681 3.50044-4.889509 5.46875-7.226563l-.03125 20.964844h18.05273V55.482422c.98032-.417751 1.98606-.794983 3.01758-1.132813v36.183594h17.59375V56.25c.06149-1.61634.41378-7.093047 4.89844-9.667969l-5.09961-1.103515Z"/></clipPath></defs><path d="M1438.2927 250H415.96948c-9.20793 0-16.66948-7.46155-16.66948-16.66929V16.663618C399.3 7.4617388 406.76174 0 415.96948 0H1438.2927c9.2021 0 16.6693 7.4617388 16.6693 16.663618V233.33071c0 9.20793-7.4674 16.66929-16.6693 16.66929"/><path d="M578.20508 168.3536v25.56829h-3.01758v-22.25768Z" fill="url(#f)"/><path d="M249.8 232c3 1.5 9 3.4 16.6 3.5 13.1.3 20.2-4.7 25.5-16.4l70-155.9c-2.9-1.5-9.3-3.3-14.5-3.4-9-.2-21.1 1.6-28.8 20l-22.7 53.4L251.4 61c-2.9-.9-9.9-2.1-15-2.1-15.7 0-24.5 5.8-33.6 15.6l-43.2 47.2 34.8 54.7c6.4 10 14.9 15 28.6 15 9 0 16.5-2.1 20-3.7l-41.9-63 29.7-31.4 48.7 76.3Zm-91.9-59c0 11.5-4.5 18.1-27 18.1-3 0-5.6-.2-8.1-.6V38.1c0-11.6 3.9-23.7 26.6-23.7 2.9 0 5.8.3 8.5.9Zm-46.4-23c0 21.5-14 37.1-42.6 40.2-20.7 2.2-50.5-.4-64.8-2-.5-2.3-.9-5.2-.9-7.5 0-18.7 10.1-23 19.6-23 9.9 0 25.5 1.7 37 1.7 12.8 0 16.6-4.3 16.6-8.4 0-5.4-5.1-7.6-15-9.5l-27.1-5.2C12 132 0 116.5 0 100c0-20 14.2-36.8 42.2-39.9 21.1-2.3 46.9.3 61 2 .5 2.4.8 4.7.8 7.2C103.9 88 94 92 84.5 92c-7.3 0-18.6-1.3-31.6-1.3-13.2 0-18.6 3.6-18.6 8.1 0 4.7 5.2 6.6 13.4 8.1l25.8 4.8c26.6 4.8 38 19.8 38 38.3"/><path opacity=".3" d="m361.9 63.3-25.6 57.1c-.8 1.5-3.6 6.4-10.7 6.7-1.7.1-23.4.8-23.4.8-4.3.1-5.7 4.2-5.7 4.3l22.1-52.1c7.7-18.4 19.8-20.2 28.8-20 5.2-.1 11.6 1.6 14.5 3.2Zm-67.2 68.2-43.3-70.4c-2.9-.9-9.9-2.1-15-2.1-15.8 0-24.5 5.8-33.6 15.6l-43.3 47.2 3.5 5.4c1.5 2 4.4 5.4 10.2 5.2 2.1-.1 22.9-.8 24.6-.9 5.4-.2 8.8 2.1 10.9 4.9l-7.7-11.6 29.7-31.5 19.9 31.3c3.6 4.7 9 4.8 10.2 4.8 1 0 27.2-1 28.3-1 1.9-.2 4 .8 5.6 3.1ZM149.4 14.4c-22.7 0-26.6 12.1-26.6 23.7v104.5c0-4.2 3.2-8.6 8.6-8.8 3.8-.1 14.4-.5 17.5-.6 3.5-.1 8.8-2.5 8.9-8.9v-109c-2.6-.6-5.5-.9-8.4-.9Zm-75.8 97.2-25.8-4.8c-8.3-1.4-13.5-3.4-13.5-8.1 0-4.4 5.5-8.1 18.6-8.1 13 0 24.3 1.3 31.6 1.3 9.5 0 19.4-4 19.4-22.7 0-2.5-.3-4.8-.8-7.2-14.1-1.7-39.9-4.3-61-2C14.2 63.2 0 79.9 0 100c0 10.3 4.7 20.2 13.7 27.3 6.8 4.5 13.8 6.2 20.8 7.4 5.7 1 19 1.9 28.9 1.5 3.1-.1 25.9-.9 30.8-1.1 11.6-.4 17.8 9.5 17.2 19.4v-.5c.1-1.3.2-2.6.2-3.9-.1-18.6-11.5-33.6-38-38.5Z" fill="url(#g)"/><path d="M709.15354 214.34487V34.568072h9.84585V214.34487Z" fill="#ff1e1e"/><g><path d="M757.82033 67.867864h24.23261v43.559416h45.00346V67.867864h24.23261V180.23949H827.0564v-45.74177h-45.00346v45.74177h-24.23261Z" fill="#ffffff"/><path d="M901.02272 67.867864V180.23949H876.825V67.867864Z" fill="#ffffff"/><path d="M937.4054 143.62063c3.85189 9.67884 11.95189 16.09848 21.72976 16.09848 7.90129 0 14.40896-4.04932 14.40896-11.25907 0-5.43202-3.65436-9.16024-11.75319-12.02439l-13.53096-4.83946c-16.39519-5.92579-26.75474-15.92576-26.75474-32.123018 0-20.345346 15.60506-33.678465 36.74103-33.678465 16.69148 0 31.30887 9.157884 38.22251 24.169985l-20.04952 11.582518c-3.35806-7.506041-9.41434-13.481968-17.67916-13.481968-7.40747 0-12.54332 3.993092-12.54332 9.92648 0 5.340048 4.03852 8.571918 10.95216 11.143048l14.6174 5.63671c17.97548 6.72451 26.65276 16.94165 26.65276 32.07179 0 22.43655-18.74055 35.50143-39.58024 35.50143-18.66681 0-35.03676-9.68967-42.14794-27.58871Z" fill="#ffffff"/><path d="M1007.9163 67.867859h83.483v22.461198h-29.6255v89.910123h-24.1977V90.329057h-29.6598Z" fill="#ffffff"/><path d="M1251.4704 180.23979h-23.9064V67.867861h37.4403c24.2028 0 41.0953 13.042859 41.0953 35.966689 0 16.10593-9.7011 27.2714-23.1363 32.4095l31.0192 43.97025h-28.4506l-27.6403-41.10475h-6.4212Zm0-60.99096h13.6327c9.681 0 16.7681-5.63216 16.7681-14.92025 0-9.485717-7.1858-14.821434-16.7681-14.821434h-13.6327Z" fill="#ffffff"/><path d="M1372.7375 180.23949h-24.1978v-48.795l-40.1487-63.576631h27.6373l24.8572 41.096541 24.9063-41.096541h27.1435l-40.1978 63.576631Z" fill="#ffffff"/><path d="M1152.8021 182.28605c-32.5929 0-58.7659-25.86503-58.7659-58.24567 0-32.380642 26.173-58.245672 58.7659-58.245672 32.5928 0 58.7659 25.86503 58.7659 58.245672 0 32.38064-26.1731 58.24567-58.7659 58.24567Zm0-93.09435c-19.0619 0-34.0743 15.40054-34.0743 34.84868 0 19.44814 14.9136 34.84867 34.0743 34.84867 19.0619 0 34.0743-15.40053 34.0743-34.84867s-14.9137-34.84868-34.0743-34.84868Z" fill="#ffffff"/></g><g><path d="M446.918 41.271484v2.470821l.99802.02539c.03588-.005101.09653-.005859.18359-.005859.83443 0 3.82978-.031338 7.21875 2.110164 5.01979 2.880633 5.0616 8.261724 5.12305 9.903562V191.16797c.00513 0 .00586 2.49805.00586 2.49805.02562.74973-.05144 1.50493-.16407 2.24414-.48632 3.19709-2.00575 6.22045-4.84179 7.94922-2.19614 1.33579-4.73172 2.38085-7.34766 2.38085-.087 0-.15288-.00585-.18359-.00585l-1.29493.01171v2.98047h65.39063v-2.98633l-.79297-.00976c-.03052.00503-.09159.00391-.18359.00391-.83451 0-3.67165.19031-7.06055-1.95118-4.19802-2.40699-5.21059-6.96043-5.34375-8.94922l-.05664-1.59179.11719-61.43555h20.10351v-6.79883h-33.08594v73.37891h-12.50976V49.011719h12.50976v63.632811h33.08594v-6.73047h-24.86133l-.0625-45.269529v-1.421875l.00586-.642578.02539-2.294922c.05642-1.621432 2.57237-9.118022 7.07227-11.703125 3.41434-2.151725 9.40377-1.320312 10.23828-1.320312.08739 0 .29391.231042.32996.231042l.74621-2.221277Z" fill="#f3c843"/><path d="M446.6151 209.23154v-2.98569l1.29518-.01056c.03071 0 .09729.00505.18429.00505 2.61594 0 5.14995-1.04507 7.34609-2.38087 2.83605-1.72877 4.35645-4.75208 4.84277-7.94918.11263-.73921.18942-1.49401.1638-2.24375 0 0 .00006-2.49827-.00507-2.49827V56.275404c-.06145-1.641839-.61945-7.118002-5.12434-9.703155-3.38897-2.141504-6.38368-2.309765-7.21811-2.309765-.08706 0-.14845-.000005-.18433.005096l-1.29738-.025496v-2.970398h65.66521v2.975501l-.896.020393c-.03606 0-.09201-.005096-.1794-.005096-.83451 0-3.82396.168265-7.2383 2.319992-4.4999 2.585105-5.0168 8.081721-5.07322 9.703155l-.02588 2.294467-.00508.642493v1.422555l.06149 40.268224h58.19177l.06148-40.263133s0-2.065003-.00508-2.065003v-2.274107c-.0564-1.646976-.59365-7.13841-5.12452-9.738878-3.38891-2.141504-6.37837-2.309765-7.21796-2.309765-.08692 0-.14842-.000005-.17892.005096l-.89602-.020393.00509-3.127551h65.77545l-.00509 3.122448-1.41289.025496c-.03097 0-.09247-.005096-.18447-.005096-.83451 0-3.82398.168265-7.23831 2.319992-4.48466 2.574926-4.83759 8.051089-4.89908 9.667433V191.16827h-.01017v2.51891c-.01017.27009-.38959 7.18934 4.92959 10.24338 3.38891 2.1415 6.37837 2.30978 7.21289 2.30978.092 0 .1535 0 .18446-.00505l1.41799.0156v2.68611h-65.78562l.02542-2.74757h.88583c.02543 0 .07675.00506.1535.00506.83451 0 3.80364-.1018 7.24894-2.27402 4.17211-2.39141 4.94004-7.27602 5.0783-9.26435v-.04632l.02034-57.303h-58.47333l-.11791 56.43632.05641 1.59075c.13316 1.98879 1.14658 6.54186 5.3446 8.94886 3.3889 2.14149 6.22487 1.95256 7.05938 1.95256.092 0 .15349 0 .18401-.00503l.79383.01008v2.98571H446.6151Zm31.57737-15.34535h2.51141v-73.17792h94.48415v73.21322h3.01673V54.006433h-3.01673V117.4458h-94.48415V54.011524h-2.51141Z" fill="url(#h)" opacity=".3"/><path d="M446.6151 209.23154v-2.98569l1.29518-.01056c.03071 0 .09729.00505.18429.00505 2.61594 0 5.14995-1.04507 7.34609-2.38087 2.83605-1.72877 4.35645-4.75208 4.84277-7.94918.11263-.73921.18942-1.49401.1638-2.24375 0 0 .00006-2.49827-.00507-2.49827V56.275404c-.06145-1.641839-.61945-7.418251-5.12434-10.003404-3.38897-2.141504-6.38368-2.209348-7.21811-2.209348-.08706 0-.14845-.000005-.18433.005096l-1.39755-.025496v-2.770566h65.76538v2.975501l-.896.020393c-.03606 0-.09201-.005096-.1794-.005096-.83451 0-3.82396.168265-7.2383 2.319992-4.4999 2.585105-5.0168 8.081721-5.07322 9.703155l-.02588 2.294467-.00508.642493v1.422555l.06149 40.268224h58.19177l.06148-40.263133s0-2.065003-.00508-2.065003v-2.274107c-.0564-1.646976-.59365-7.13841-5.12452-9.738878-3.38891-2.141504-6.37837-2.309765-7.21796-2.309765-.08692 0-.14842-.000005-.17892.005096l-.89602-.020393.00509-3.127551h65.77545l-.00509 3.122448-1.41289.025496c-.03097 0-.09247-.005096-.18447-.005096-.83451 0-3.82398.168265-7.23831 2.319992-4.48466 2.574926-4.83759 8.051089-4.89908 9.667433V191.16827h-.01017v2.51891c-.01017.27009-.38959 7.18934 4.92959 10.24338 3.38891 2.1415 6.37837 2.30978 7.21289 2.30978.092 0 .1535 0 .18446-.00505l1.41799.0156v2.68611h-65.78562l.02542-2.74757h.88583c.02543 0 .07675.00506.1535.00506.83451 0 3.80364-.1018 7.24894-2.27402 4.17211-2.39141 4.94004-7.27602 5.0783-9.26435v-.04632l.02034-57.303h-58.47333l-.11791 56.43632.05641 1.59075c.13316 1.98879 1.14658 6.54186 5.3446 8.94886 3.3889 2.14149 6.22487 1.95256 7.05938 1.95256.092 0 .15349 0 .18401-.00503l.79383.01008v2.98571H446.6151Zm31.57737-15.34535h2.51141v-73.17792h94.48415v73.21322h3.01673V54.006433h-3.01673V117.4458h-94.48415V54.011524h-2.51141Z" fill="url(#i)" opacity=".5"/><path d="M447.37833 208.47996v-1.4839l1.29514-.01009c.03069 0 .09727.00504.18428.00504.83442 0 3.8292-.16829 7.23859-2.31987 5.29841-3.03891 5.11412-9.95816 5.10899-10.25394v-2.49824h-.00513V55.524003c-.0614-1.64184-.61944-7.118003-5.12434-9.703109-3.38891-2.141551-6.38369-2.309811-7.21811-2.309811-.08701 0-.14846-.000005-.18428.005094l-1.39755-.025496v-1.468466h64.25645v1.473571l-.89601.020391c-.03559 0-.092-.005094-.17891-.005094-.83451 0-3.82399.168265-7.23878 2.319992-4.49945 2.585104-5.02189 8.076629-5.07829 9.703154l-.02033 2.294468-.0051.642492v1.422555l.06149 41.769846h59.70037l.0615-41.764755v-2.065002h-.00508v-2.274109c-.05642-1.646929-.59411-7.138408-5.12453-9.73883-3.38891-2.141551-6.37838-2.309811-7.21797-2.309811-.08692 0-.14841-.000005-.17939.005094l-.89554-.020391-.00555-1.615422h64.26686l.00509 1.610317-1.4129.025496c-.03052 0-.09201-.005094-.18402-.005094-.83451 0-3.82396.168265-7.23878 2.319992-4.48417 2.574925-4.8371 8.051088-4.8986 9.667432V191.91896h-.01017v2.51886c-.01017.27011-.38957 7.18938 4.92911 10.24341 3.38893 2.14149 6.37885 2.30978 7.21336 2.30978.092 0 .15349 0 .18402-.00504l1.41798.01513v1.48391h-64.27702v-1.47841h.88581c.02544 0 .07677.00504.15351.00504.83451 0 3.82906-.16829 7.26929-2.3405 4.1721-2.39141 4.94004-7.27603 5.07828-9.26482v-.04587l.02034-58.80523h-59.9713l.02034 58.82588v.02018c.13316 1.98878.90109 6.87341 5.09863 9.27995 3.38892 2.14149 6.37838 2.30978 7.21288 2.30978.09247 0 .1535 0 .18448-.00504l.89092.01009v1.4839Zm30.06886-13.84356h4.02001v-73.17793h92.97555v73.21369h4.52533V53.255032h-4.52533v63.439178H481.4672V53.260122h-4.02001Z" fill="url(#j)"/><path d="M447.37833 208.48043v-1.48392l1.29514-.01008c.03069 0 .09727.00503.18428.00503.83442 0 3.8292-.16828 7.23859-2.31987 5.29841-3.03889 5.11412-9.95815 5.10899-10.25394v-2.49869h-.00513V55.524369c-.0614-1.641838-.61939-7.118003-5.12434-9.703154-3.38891-2.141523-6.38369-2.309784-7.21811-2.309784-.08701 0-.14846-.000005-.18428.005094l-1.39755-.025495v-1.468467h64.25645v1.473571l-.89601.020391c-.03559 0-.092-.005094-.17891-.005094-.83451 0-3.82399.168266-7.23878 2.32001-4.49945 2.585105-5.0168 8.081674-5.0732 9.703109l-.02542 2.294514-.0051.642447v1.4226l.06149 41.769949h59.70037l.0615-41.764858v-2.065049h-.00508v-2.274107c-.05642-1.646931-.59411-7.13841-5.12453-9.738831-3.38891-2.141523-6.37838-2.309784-7.21797-2.309784-.08692 0-.14841-.000005-.17939.005094l-.89554-.020391.00507-1.625621h64.26641l-.00508 1.620517-1.4129.025495c-.03052 0-.09201-.005094-.18402-.005094-.83451 0-3.82396.168266-7.23878 2.32001-4.48417 2.574925-4.8371 8.05109-4.8986 9.667432V191.91896h-.01017v2.51886c-.01017.27057-.38957 7.18938 4.92911 10.24386 3.38939 2.1415 6.37885 2.30978 7.21336 2.30978.092 0 .15349 0 .18402-.00503l1.41798.01512v1.48392h-64.27702l.02588-1.5449h.88537c.02589 0 .07675.00503.15395.00503.83405 0 3.80318-.10225 7.24849-2.27401 4.17212-2.3914 4.94004-7.27601 5.0783-9.26482v-.04585l.0208-58.80524h-59.97686l.02034 58.82542v.02064c.13316 1.98832.90109 6.87341 5.09863 9.27994 3.38892 2.1415 6.37838 2.30978 7.21288 2.30978.09247 0 .1535 0 .18448-.00503l.89092.01008v1.48392Zm30.06886-13.84357h4.02001v-73.17793h92.97555v73.21368h4.52533V53.255353h-4.52533v63.439307H481.4672V53.260489h-4.02001Z" fill="url(#k)"/><path d="m544.52539 41.869645-.00586 1.626449.89649.019531c.03051-.005099.09229-.003906.17968-.003906.83913 0 3.82984.167073 7.21875 2.308593 4.53041 2.600419 5.06664 8.093306 5.12305 9.740235v2.273437c.00508 0 .00586 2.064454.00586 2.064454l-.06055 41.765622h-59.70117l-.0625-41.769529v-1.423828l.00586-.642578.02539-2.292969c.05641-1.621433.57431-7.118022 5.07422-9.703125 3.41434-2.151742 6.40376-2.320312 7.23828-2.320312.08692 0 .14215.003906.17773.003906l.89649-.019531v-1.472656h-64.25586v1.466796l1.39648.025391c.03583-.005099.09854-.003906.18555-.003906.83447 0 3.82784.167073 7.2168 2.308593 4.50489 2.585149 5.06357 8.061289 5.125 9.703126V191.91992c.00509 0 .00586 2.49805.00586 2.49805.02561.74931-.05144 1.50299-.16406 2.24219-.48634 3.1971-2.00771 6.22089-4.84376 7.94922-2.19613 1.33578-4.72977 2.38281-7.3457 2.38281-.08704 0-.15289-.00586-.18359-.00586l-1.29492.00976v1.47852h63.88281v-1.48242l-.79492-.01172c-.03097.00505-.09159.00586-.1836.00586-.83451 0-3.66968.18837-7.05859-1.95313-4.19755-2.40653-5.21254-6.95894-5.3457-8.94726l-.05664-1.5918.11914-57.9375h59.98047l-.00196-1.11763 16.52149-12.11312v-1.86611H481.4668v73.17694h-4.0193V53.259766h4.0193v63.435114h92.97461V53.255859h4.52734v68.110601l16.08479-3.05163V55.498047c.0615-1.616341.41298-7.091093 4.89763-9.666016 3.41434-2.151742 6.40377-2.320312 7.23828-2.320312.09202 0 .15504.003906.18555.003906l1.41211-.025391.00586-1.620589Z" fill="url(#l)"/><path d="m544.51758 41.879411-.00586 1.626448.89648.019532c.0305-.005099.09083-.003907.17774-.003907.83951 0 3.83017.167273 7.21875 2.308594 4.52995 2.600173 5.0671 8.091507 5.12304 9.738281v2.273438c.00508 0 .00586 2.066406.00586 2.066406l-.0625 41.759767h-59.69336l-.0625-41.765626v-1.421875l.00586-.642578.02539-2.294922c.0564-1.621281.57282-7.116314 5.07227-9.701172 3.41402-2.15154 6.40385-2.320313 7.23828-2.320313.08692 0 .14408.003907.17969.003907l.89453-.019532v-1.472656h-64.25V43.5l1.39844.025391c.03582-.005099.0966-.003907.18359-.003907.83434 0 3.82821.167273 7.2168 2.308594 4.50447 2.584905 5.06361 8.061441 5.125 9.703125V185.80526l16.24046-11.81035V53.269531h4.0193v63.427299h92.96485V53.263672h4.52539V194.66797h-4.52539v-73.20624h-92.96485v46.95878l16.35352-15.09256.11719-16.77131h59.97656l-.01953 58.79883v.04687c-.13823 1.9886-.90644 6.8725-5.07813 9.26368-3.44497 2.17155-6.41361 2.27343-7.24804 2.27343-.07674 0-.12888-.0039-.1543-.0039h-.88477l-.02539 1.54492h64.26953v-1.48438l-1.41796-.01562c-.03051.00505-.09114.00586-.1836.00586-.83444 0-3.82431-.16927-7.21289-2.31055-5.31817-3.0542-5.13908-9.97165-5.12891-10.24219v-2.51953h.01172V55.507812c.06103-1.616191.61347-7.091335 5.09766-9.666015 3.41401-2.15154 6.40431-2.320313 7.23828-2.320313.09245 0 .15308.003907.1836.003907l1.4121-.025391.00586-1.620589Z" fill="url(#m)"/></g><path d="m564.17002 181.06148-2.14574 2.19425-.16359 3.17344s1.84853-2.48638 4.63283-5.35392Z" transform="translate(-1113.5092 -357.299) scale(2.973601)" fill="#6a1010" filter="url(#n)"/><path d="M661.56416 162.05019c-10.81784 17.07036-12.66051 17.66584-31.56175 17.66584h-62.4259a1086.71508782 1086.71508782 0 0 1-23.91835 23.91835v5.45854H656.698c3.17588-12.00879 6.45091-28.87876 10.52-44.65892Z" fill="url(#o)"/><path d="M543.65816 203.63438v5.45854h.92238l-.00245-5.15983Z" fill="#c83a39"/><path d="M661.02184 162.89082c-8.60448 13.71688-12.57697 16.76022-22.88051 17.39908-2.40418.14907-37.25154.11172-40.51124.11172l33.28488.10023c17.04751 0 20.43199-.6992 30.78079-17.09931Z" fill="#f58677"/><path d="M595.59766 29.910156C583.72847 31.997182 572.76786 37.717616 564.5 46.724c-7.04648 7.939694-13.29927 16.37415-18.75781 25.504797l5.95508 4.566406C560.13319 64.488678 571.84418 52.482 590.10547 52.482c1.9232 0 3.75296.23306 5.49219.490656Z" fill="url(#p)" filter="url(#q)" clip-path="url(#r)" transform="matrix(1 0 0 1.0006085 0 -.11798461)"/><path d="M605.0918 28.960244c-3.20752.003379-6.38021.302253-9.49414.850126l-8.04052 12.069994 8.04052 11.00654c16.83942 2.495596 25.07617 16.671305 25.07617 34.763326 0 19.58646-9.16215 39.24972-24.87485 59.9534l.00286 17.12512 20.60441-19.87772c27.68968-26.21693 39.89648-43.69592 39.89648-67.03295 0-30.785032-23.22351-48.857836-51.21093-48.857836Z" fill="url(#s)"/><path d="M595.59825 147.86931c15.83575-20.8009 25.07501-40.54922 25.07501-60.219188 0-19.960638-10.02387-35.154555-30.56785-35.154555-18.26131 0-29.97237 12.214717-38.4083 24.528742l-5.95478-4.568106c5.45855-9.136211 11.71106-17.676583 18.75755-25.621117 10.43698-11.376177 25.1583-17.858936 40.59172-17.875196 27.98745 0 51.21107 18.073811 51.21107 48.858873 0 23.337057-12.20729 40.815037-39.897 67.031997l-20.80742 20.07445Z" fill="url(#t)"/><path d="M543.65816 208.5v.59292H656.698l.15586-.59292Z" fill="#560a03"/><path d="M567.14086 180.1652c-7.84809 8.09626-15.38614 15.6208-23.4824 23.46889l.91963.299-.15793.15008c7.8782-7.63671 15.64028-15.39229 23.28357-23.26405Z" fill="#f58677"/><path d="M595.98956 30.111186c-8.5033 1.496093-16.43997 4.858512-23.35456 9.958948-2.73702 2.018914-5.39801 4.209701-7.74261 6.765292-2.38204 2.685625-4.66242 5.459534-6.84788 8.175096-4.1817 5.196004-8.01768 10.546133-11.56201 16.430471l.46108.318671c3.47098-5.722565 7.21621-10.934456 11.29061-15.998596 2.18789-2.71936 4.47119-5.496561 6.85742-8.186911 2.3603-2.572703 4.93967-4.776602 7.6975-6.804724 6.84815-5.036154 14.79377-8.769432 23.20045-10.278805 8.96937-1.530075 11.0873-.93788 11.0873-.93788s-4.06907-.679819-11.0873.558438Z" fill="#f7b1a3"/><path opacity=".3" d="M411.3 124s.5 0 1.6-.1c49.3-1.8 1029.662-35.972095 1029.662-35.972095 6.3-.2 12.4-4.9 12.4-12.7L1454.9619 16.6c0-9.2-7.5-16.6-16.7-16.6H416c-9.2 0-16.7 7.4-16.7 16.6V137c0-1.3.4-11.9 12-13Z" fill="url(#u)"/><path d="M620.05321 75.986293c.16036.696291.3049 1.114304.43361 1.850125.11438.653864.22101 1.321917.31783 1.999216.34794 2.433816.56935 5.29531.56935 7.814596 0 3.824569-.44917 7.652069-1.12842 11.489679-1.03027 5.820851-2.81953 11.664941-5.29991 17.557311-1.45943 3.90489-3.15813 6.98371-5.08227 10.45625-3.27238 5.96183-7.19683 11.98676-11.70537 18.09983l.16351.59406c.42917-.60723.92121-1.30616 1.45579-2.07023 2.91881-4.17184 7.10569-10.28585 9.25041-14.02183 2.46218-4.3071 4.25547-9.51149 6.40967-12.87519 4.05706-9.7026 6.23715-19.275076 6.23715-28.829246 0-3.817634-.36759-7.460157-1.10563-10.855118-.14985-.689275-.31496-1.368345-.49537-2.036602Z" fill="#f8b9ac"/></svg>