<?xml version="1.0" encoding="UTF-8"?>
<svg id="_Слой_1" data-name="Слой 1" xmlns="http://www.w3.org/2000/svg" width="500" height="605.48" xmlns:xlink="http://www.w3.org/1999/xlink" viewBox="0 0 500 605.48">
  <defs>
    <style>
      .cls-1, .cls-2, .cls-3 {
        stroke-width: 0px;
      }

      .cls-2 {
        fill: #fff;
      }

      .cls-3 {
        fill: url(#_Безымянный_градиент_56);
      }
    </style>
    <linearGradient id="_Безымянный_градиент_56" data-name="Безымянный градиент 56" x1="66.09" y1="310.48" x2="441.85" y2="625.78" gradientUnits="userSpaceOnUse">
      <stop offset=".25" stop-color="#ffb800"/>
      <stop offset=".6" stop-color="#ff8d2d"/>
      <stop offset=".9" stop-color="#ff6556"/>
    </linearGradient>
  </defs>
  <path class="cls-3" d="M465.76,461.98l.02.08c-6.55-4.05-8.55-13.51-4.14-20.5,6.37-10.11,10.29-22.35,10.65-35.68.8-31.29-19.37-58.46-46.93-63.32h.07c-4.59-1.52-208.01-41.34-358.68-7.25,0,0,.23,3.18,0,0-32.63,6.92-59.6,36.29-65.51,73.84-4.53,28.79,3.64,55.97,19.65,75.1,2.3,2.73,3.31,6.58,2.45,10.28-1.77,7.62-2.55,15.73-2.07,24.16,2,35.4,26.21,64.41,57.68,69.04,20.07,2.96,39.21-4.07,53.67-17.47,2.22-2.06,5.39-1.78,7.23.62,9.28,12.14,22.74,20.26,38.27,21.58,16.24,1.36,31.57-5.01,43.03-16.31,2.3-2.28,5.45-3.02,8.29-1.92,4.47,1.72,9.24,2.86,14.21,3.28,17.67,1.47,34.26-6.19,45.96-19.43,1.44-1.64,3.74-1.86,5.32-.48,12.38,10.74,27.65,17.69,44.62,19.11,9.98.84,19.71-.3,28.91-3.12,3.22-.97,6.55.28,8.57,3.18,12.14,17.47,31.2,28.81,53.27,28.71,30.51-.14,61.85-28.61,68.16-62.09,6.47-34.23-8.04-66.17-32.7-81.41Z"/>
  <g>
    <path class="cls-1" d="M422.67,305.97l-6.95,35.82-10.35,54.69c-.94,8.29-3.9,23.36-15.3,36.09-9.35,10.44-20.03,16.96-28.46,17.64-26.53,2.15-51.42,2.15-92.89,1.71-38.99-.41-94.61-1.1-120.04-3.96-8.56-.97-19.91-6.91-31.48-16.85-14-12.03-19.89-26.54-24.1-34.92-8.62-17.58-14.84-29.58-19.36-38-1.04-1.94-2.56-4.98-4.09-9.29-1.75-4.91-2.6-9.46-2.9-13.59.02,0,.04-.01.06-.01-.32-4.71-.01-9.4.9-13.96,3.24-16.45,14.17-31.14,30.77-38.47l8.1-3.58c.36-.18.42-.68.12-.92l-15.67-12.14c-15.91-12.32-22.12-33.46-15.37-52.41l26.61-74.85c6.75-19.03,23.72-32.59,43.75-35l92.88-11.18h.04c31.35-4.28,24.46-31.93,24.8-45.55.82-34.82,52.57-50.25,82.22-46.76,12.04,1.42,20.43,5.97,20.29,13.6-.3,15.91-51.02,15.63-75.24,46.38-14.85,18.85-2.75,26.08,4.99,25.94,20.69-.36,18.07-17.29,31.07-32.53,18.49-21.64,53.73-26.71,63.25-5.41,12.76,28.57-34.36,14.34-50.87,24.38-6.73,4.11-10.72,9.76-12.28,17.43-1.76,8.61,1.16,11.46,7.03,22.88l15.97,29.81c15.62,29.13,13.12,64.59-6.41,91.25l-13.95,19.05c-.3.39.08.93.54.83l30.15-7.36c36.13-8.83,69.26,22.74,62.17,59.24Z"/>
    <path class="cls-2" d="M104.87,196.15l15.95-48.74c4.31-13.16,15.77-22.66,29.47-24.48l133.63-17.75c15.31-2.04,30.23,5.95,37.04,19.81l12.66,25.8c8.37,17.01,2.06,37.62-14.4,47.04l-98.55,56.6,41.17-62.69-130.6,32.74c-16.87,4.23-31.81-11.8-26.4-28.33h.02Z"/>
    <path class="cls-2" d="M393.62,316.55l-14.6,77.47c-3.69,19.67-20.92,33.88-40.91,33.8l-172.29-.7c-21.78-.08-41.57-12.58-50.99-32.19l-20.9-43.45c-8.81-18.31-.12-40.27,18.85-47.62l89.49-34.62-37.6,47.14,195.17-34.08c20.11-3.49,37.56,14.16,33.8,34.26l-.02-.02Z"/>
    <path class="cls-1" d="M232.77,347.62c0-13.84-12.8-22.18-24.02-20.74l-4.23.54c-11.94,1.52-20.33,12.54-18.65,24.46l5.49,38.14c1.5,10.46,10.46,18.23,21.04,18.23h6.35c9.44,0,18.19-6.65,16.95-18.97l-2.94-41.63v-.02ZM215.44,393.18h-3.03c-3.63.1-6.01-2.56-6.55-6.15l-5.07-33.82c-.74-4.95,2.74-9.52,7.71-10.14,5.11-.62,9.68,3.21,9.94,8.35l2.88,34.16c.22,4.07-.66,7.61-5.89,7.61h.02Z"/>
    <path class="cls-1" d="M246.41,172.77c.3,2.24,1.5,4.25,3.35,5.55,1.38.98,3.01,1.5,4.67,1.5.56,0,1.12-.06,1.68-.18l30.93-6.57c8.15-1.74,14.87-7.29,18.49-15.27,3.65-8.09,3.33-17.31-.84-24.7-6.55-11.62-19.79-17.97-32.94-15.83l-24,3.11c-2.14.28-4.05,1.38-5.37,3.09-1.32,1.7-1.9,3.85-1.62,5.99l5.63,43.33.02-.02ZM273.98,133.3s.2-.02.3-.04c6.53-1.1,13.08,2.04,16.31,7.79,1.66,2.92,1.72,6.69.18,10.08-1.46,3.23-4.03,5.45-7.09,6.11l-22.36,4.75-3.45-26.6,16.11-2.1h0Z"/>
    <path class="cls-1" d="M137.27,204.08c.76.22,1.52.32,2.28.32,3.49,0,6.73-2.3,7.77-5.83l8.15-27.81c.14.18.3.36.46.54.1.1.16.24.28.34h0c.2.2.42.36.64.52.22.18.42.36.64.52h.02l29.61,19.09c1.36.88,2.88,1.3,4.37,1.3,2.66,0,5.27-1.32,6.81-3.71,2.42-3.75,1.34-8.77-2.42-11.18l-21.2-13.66,21.44-21.5c3.15-3.17,3.15-8.29,0-11.44-3.17-3.15-8.29-3.15-11.44,0l-25.14,25.2,2.94-10.02c1.26-4.29-1.2-8.79-5.49-10.04-4.29-1.26-8.79,1.2-10.04,5.49l-15.15,51.79c-1.26,4.29,1.2,8.79,5.49,10.04v.06Z"/>
    <path class="cls-1" d="M221.95,187.39c.22,0,.44,0,.66-.02,4.45-.36,7.77-4.25,7.41-8.73l-3.67-45.52c-.36-4.45-4.25-7.79-8.73-7.41-4.45.36-7.77,4.25-7.41,8.73l3.67,45.52c.34,4.23,3.87,7.45,8.07,7.45v-.02Z"/>
    <path class="cls-1" d="M179.66,393.92l-18.43.28,10.6-46.32c.9-3.91-.32-8.03-3.19-10.82-2.52-2.46-6.01-3.61-9.5-3.15l-37.8,5.21c-4.39.56-7.29,4.85-6.17,9.14.92,3.55,4.33,5.89,7.99,5.45l32.53-4.25-10.26,45.12c-.84,3.71.16,7.61,2.7,10.46,2.24,2.5,5.43,3.93,8.77,3.93h22.92c4.69,0,8.25-4.23,7.43-8.87-.66-3.63-3.85-6.27-7.57-6.19Z"/>
    <path class="cls-1" d="M360.28,307.11l-34.44,4.19c-5.83.76-10.18,5.69-10.22,11.56l-.44,72.5c-.04,6.37,5.07,11.58,11.44,11.64l23.8.22c4.15.04,7.71-3.01,8.27-7.13,0-.08.02-.16.04-.22.7-5.03-3.27-9.48-8.35-9.38l-20.27.36.18-24.4,26.62-1.12c3.81-.18,6.95-3.05,7.47-6.83,0-.06,0-.12.02-.18.68-4.97-3.41-9.3-8.43-8.92l-25.56,1.76.18-23.2,31.79-3.55c3.93-.48,7.03-3.55,7.51-7.47,0-.08.02-.16.02-.24.7-5.59-4.07-10.32-9.64-9.6l.02.02Z"/>
    <path class="cls-1" d="M294.13,313.9c-3.67.48-6.45,3.59-6.49,7.31l.38,52.03-23.56-46.9c-1.72-3.41-5.41-5.35-9.18-4.85-4.55.6-7.93,4.57-7.77,9.18l2.36,71.14c.14,3.89,3.25,7.05,7.17,7.17,4.31.16,7.85-3.37,7.69-7.69l-1.42-42.25,22.8,46.24c1.52,2.94,4.57,4.73,7.87,4.67,4.67-.1,8.45-3.89,8.49-8.57l.06-80.02c.06-4.53-3.91-8.05-8.39-7.47h0Z"/>
  </g>
  <g id="mini">
    <path class="cls-2" d="M405.96,451.9c0-9.3,7.55-16.85,16.85-16.85s16.85,7.55,16.85,16.85v.9c0,9.3-7.55,16.85-16.85,16.85s-16.85-7.55-16.85-16.85v-.9Z"/>
    <path class="cls-2" d="M218.2,503.48v20.74c0,10.82-8.77,19.59-19.59,19.59-.92,0-1.8-.08-2.68-.2-.38-.06-.74-.14-1.12-.22-.46-.1-.94-.18-1.38-.3-.6-.16-1.16-.38-1.74-.6-.18-.06-.36-.12-.54-.2-3.71-1.58-6.79-4.29-8.88-7.71-1.14-1.84-1.7-3.99-1.7-6.15v-38.1c0-7.23-5.85-13.1-13.1-13.1h-.24c-7.23,0-13.1,5.87-13.1,13.1v33.88c0,10.76-8.71,19.51-19.45,19.57-10.76-.08-19.45-8.81-19.45-19.57v-33.88c0-7.23-5.85-13.1-13.1-13.1h-.24c-7.23,0-13.1,5.87-13.1,13.1v38.1c0,2.16-.56,4.31-1.7,6.15-2.1,3.43-5.19,6.15-8.88,7.71-.18.08-.36.12-.52.2-.56.22-1.14.42-1.74.6-.46.12-.92.2-1.38.3-.38.08-.74.18-1.12.22-.88.12-1.78.2-2.68.2-10.82,0-19.59-8.77-19.59-19.59v-29.07c0-27.63,22.4-50.04,50.04-50.04h2.86c11.46,0,22.02,3.87,30.47,10.36.04-.04.08-.06.12-.1.04.04.08.06.14.1,8.45-6.49,18.99-10.36,30.47-10.36h2.86c27.63,0,50.04,22.4,50.04,50.04v8.35-.02Z"/>
    <path class="cls-2" d="M271.15,524.22c0,10.82-8.77,19.59-19.59,19.59s-19.59-8.77-19.59-19.59v-29.77c0-10.82,8.77-19.59,19.59-19.59s19.59,8.77,19.59,19.59v29.77Z"/>
    <path class="cls-2" d="M234.71,452.8v-.9c0-9.3,7.55-16.85,16.85-16.85s16.85,7.55,16.85,16.85v.9c0,9.3-7.55,16.85-16.85,16.85s-16.85-7.55-16.85-16.85Z"/>
    <path class="cls-2" d="M389.45,498.06v26.16c0,10.14-7.71,18.47-17.57,19.49-.66.06-1.32.1-2,.1-1.36,0-2.68-.14-3.95-.4-3.19-.66-6.09-2.08-8.51-4.07-.96-.8-1.86-1.68-2.66-2.66-2.8-3.37-4.47-7.73-4.47-12.46v-33.88c0-5.43-3.29-10.08-7.99-12.06-1.56-.66-3.29-1.04-5.09-1.04h0c-1.82,0-3.53.36-5.09,1.04-1.96.82-3.67,2.12-5.01,3.73-.26.32-.52.66-.76,1-.48.7-.88,1.44-1.2,2.22-.66,1.56-1.04,3.29-1.04,5.09v33.88c0,10.82-8.77,19.59-19.59,19.59s-19.59-8.77-19.59-19.59v-29.07c0-20.01,11.74-37.28,28.73-45.28h0c.78-.36,1.58-.72,2.38-1.04.1-.04.22-.08.32-.12.7-.28,1.4-.54,2.1-.78.18-.06.36-.12.54-.18.64-.22,1.28-.42,1.94-.62.22-.06.46-.14.68-.2.6-.16,1.22-.32,1.84-.48.26-.06.52-.12.8-.18.6-.14,1.2-.24,1.8-.36.28-.06.58-.1.86-.16.6-.1,1.18-.18,1.78-.26.3-.04.6-.08.9-.12.62-.06,1.26-.12,1.88-.16.28,0,.54-.04.82-.06.9-.04,1.82-.08,2.72-.08h4.41c.92,0,1.82.02,2.72.08.28,0,.54.04.82.06.64.04,1.26.1,1.88.16.3.04.6.08.9.12.6.08,1.2.16,1.78.26.3.04.58.1.86.16.6.1,1.2.22,1.78.36.26.06.54.12.8.18.62.14,1.24.3,1.84.48.22.06.46.12.68.2.66.2,1.3.4,1.94.62.18.06.36.12.54.18.7.24,1.4.52,2.1.78.1.04.22.08.32.14.8.32,1.6.68,2.38,1.04,16.97,8.01,28.73,25.26,28.73,45.28v2.94-.02Z"/>
    <path class="cls-2" d="M442.4,524.22c0,10.82-8.77,19.59-19.59,19.59s-19.59-8.77-19.59-19.59v-29.77c0-10.82,8.77-19.59,19.59-19.59s19.59,8.77,19.59,19.59v29.77Z"/>
  </g>
</svg>