<?xml version="1.0" encoding="utf-8"?>
<!-- Generator: Adobe Illustrator 27.0.1, SVG Export Plug-In . SVG Version: 6.00 Build 0)  -->
<svg version="1.1" id="Слой_1" xmlns="http://www.w3.org/2000/svg" xmlns:xlink="http://www.w3.org/1999/xlink" x="0px" y="0px"
	 width="500px" height="452.9px" viewBox="0 0 500 452.9" style="enable-background:new 0 0 500 452.9;" xml:space="preserve">
<style type="text/css">
	.st0{fill:url(#SVGID_1_);}
	.st1{fill:#66FF99;}
	.st2{fill:#F2F2F2;}
</style>
<g>
	
		<linearGradient id="SVGID_1_" gradientUnits="userSpaceOnUse" x1="300.5335" y1="258.3275" x2="233.9875" y2="50.9973" gradientTransform="matrix(1 0 0 1 0 254.1642)">
		<stop  offset="0" style="stop-color:#330066"/>
		<stop  offset="1" style="stop-color:#ED1E79"/>
	</linearGradient>
	<polygon class="st0" points="89,285.1 0,350.3 63.6,452.9 439,452.9 500,359.8 444.3,265.5 	"/>
	<polygon points="381.3,106.2 324.4,0 121.6,24.4 73.2,160.7 115.8,193.7 55.9,220.2 128.5,362.7 398.9,366.4 438.3,176.1 
		391.4,157.9 335,169.4 	"/>
	<path class="st1" d="M458.6,346.8l-21.3-34l-59.4,62L363.8,357h-45.4l36.6,41.7l-32.6,34L288.9,357h-54.5l-44.1,65.7l-6.2-65.7
		h-42.9l-14.1,23l-41.7-51l-40.6,30.1l32.6,77.6h33.4l-10.4-51.5l29,34.8l18.4-30.2l6.2,47h65l19.2-25.7l11.4,26.6l21.7-21.5
		l6.1,20.6h78.3l18.5-16.2l14.2,16.2h38.7l-29.3-36.9L458.6,346.8L458.6,346.8z M241.7,406.6l19.3-25.7l7.7,25.9L241.7,406.6
		L241.7,406.6z"/>
	<path class="st2" d="M225.2,256l2.7,50.6l-13.7,0.3l-7.3-48.6L225.2,256L225.2,256z M378.3,341.2l-239.9-1L86.2,231.8L209.6,184
		l-37.2,46.7l234.4-40.9L378.3,341.2L378.3,341.2z M192.6,322.4l-2.7-15.1l-20.8,0.4l11.9-52.1l-8.5-8.3l-48.9,6.3l3.7,14.1
		l36.3-4.4L152.1,314l7.5,8.4H192.6L192.6,322.4z M242.3,315.4l-3-69.1l-8.7-6.7l-33.5,4.1l-6,6.9l9.4,64.6l7.5,6.1l27.1,0.4
		L242.3,315.4L242.3,315.4z M309,321.4l0.9-92l-14.8,1.9l-0.6,55.7l-26.1-52l-14.2,1.9l2.8,84.5l14.8,0.5l-1.7-48.9l25.2,48.7
		L309,321.4L309,321.4z M364.9,320.8c0.6-4.2,2.3-16.8,2.3-16.8l-27.4,0.5l0.2-24.1l30.6-1.4c0.6-4.4,1.6-11.8,2.2-16.2l-32.7,2.5
		l0.2-23l35.8-4.3c0,0,1.7-13.5,2.2-17.8l-52.8,6.9l-0.6,93.3L364.9,320.8L364.9,320.8z M289.2,47.9L266,51.2l4.4,26.1l24.6-6.1
		l4.8-6.1l-4.1-12.5C295.7,52.5,289.2,47.9,289.2,47.9z M227.9,169.4l40.8-62.1l-167.8,42.1L136,42.1l179.8-23.9l38.5,78.5
		L227.9,169.4L227.9,169.4z M209.3,106.4l-31-23.2l28.6-37.3l-19.5,2.8l-26.6,33.7l9.8-31.4l-18.8,2.7l-20,70.5l19.3-4.5l8.4-31.5
		l28,23.3L209.3,106.4L209.3,106.4z M239.9,99.5l-6.2-57.4l-17.8,2.5l6.2,59L239.9,99.5L239.9,99.5z M310,83.7l12.8-13.6l-12.5-27.9
		l-17.1-8.5l-46.7,6.6l6.8,56.2L310,83.7L310,83.7z"/>
</g>
</svg>
