<?xml version="1.0" encoding="utf-8"?>
<!-- Generator: Adobe Illustrator 24.3.0, SVG Export Plug-In . SVG Version: 6.00 Build 0)  -->
<svg version="1.1" id="Слой_1" xmlns="http://www.w3.org/2000/svg" xmlns:xlink="http://www.w3.org/1999/xlink" x="0px" y="0px"
	 viewBox="0 0 512 95.5" style="enable-background:new 0 0 512 95.5;" xml:space="preserve">
<g transform="translate(-497.589 -327.261)">
	<path d="M543.5,374.4L497.6,330v88.9h92.5V330L543.5,374.4z"/>
	<path d="M786.3,384.6h-32.4v36.9h-21.8v-93.2h21.8v35.9h32.4v-35.9h21.8v93.2h-21.8V384.6z"/>
	<path d="M874.4,328.2H940v20.4h-21.9v72.8h-21.8v-72.8h-21.9L874.4,328.2z"/>
	<g transform="translate(518.562 327.261)">
		<path d="M425.1,81.9l13.6-17c5.1,6.4,12.7,10.5,20.8,11.2c6.1,0,10.4-3.3,10.4-7.8c0-4.3-2-7.7-8.2-10.2l-9.8-4
			c-13.9-5.7-20.8-13.1-20.8-26.4C431.6,12.1,444.5-0.2,460,0c10.9-0.5,21.6,3.6,29.4,11.2l-12.3,16.3c-4.1-5.3-10.4-8.3-17.1-8.1
			c-5.4,0-8.4,3-8.4,6.9s2.8,6,8.1,8.2l10.4,4.2c14.2,5.8,21,15.7,21,27.5c0,16.9-12.2,29.3-32.7,29.3
			C446,95.3,434.1,90.5,425.1,81.9"/>
		<rect x="314.4" y="1" width="21.8" height="20.4"/>
		<path d="M314.4,21.4v72.8h21.8v-66L314.4,21.4z"/>
		<path d="M187.4,29.9c0-15-12.1-27.1-27.1-27.1c-9.6,0-18.5,5.1-23.4,13.3C129.2,3.2,112.6-1,99.7,6.6
			c-12.9,7.6-17.1,24.3-9.5,37.2c1.7,2.8,3.8,5.3,6.3,7.3L137,91.6l41.5-41.5l-0.1,0C184.1,44.9,187.4,37.6,187.4,29.9"/>
	</g>
</g>
</svg>
