<?xml version="1.0" encoding="utf-8"?>
<!-- Generator: Adobe Illustrator 24.3.0, SVG Export Plug-In . SVG Version: 6.00 Build 0)  -->
<svg version="1.1" id="Слой_1" xmlns="http://www.w3.org/2000/svg" xmlns:xlink="http://www.w3.org/1999/xlink" x="0px" y="0px"
	 viewBox="0 0 512 365.9" style="enable-background:new 0 0 512 365.9;" xml:space="preserve">
<style type="text/css">
	.st0{fill:#80FEFF;}
	.st1{fill:#7C0096;}
</style>
<g transform="translate(-199.635 -140.241)">
	<g transform="translate(199.635 140.243)">
		<g transform="translate(0 0)">
			<path class="st0" d="M510.6,0C510.4,0,492,0,492,0l-70.8,15.1c-0.8,0.2-1.3,0.9-1.3,1.7v10.7c-5.2-2.2-10.9-3.3-16.5-3.2h-17.1
				c-3.5,0-7,0.3-10.4,0.9l-62.2,13.3c-0.8,0.2-1.3,0.9-1.3,1.6v20.1c0,0.9,0.8,1.7,1.7,1.7c0.1,0,0.2,0,0.4,0h0.1
				c0.3,0.1,0.5,0.1,0.8,0h0.1c0.3,0.1,0.5,0.1,0.8,0h0.1c0.3,0.1,0.5,0.1,0.8,0h0.1c0.3,0.1,0.5,0.1,0.8,0h0.1
				c0.3,0.1,0.5,0.1,0.8,0h0.1c0.3,0.1,0.5,0.1,0.8,0h0.1c0.3,0.1,0.5,0.1,0.8,0h0.1c0.3,0.1,0.5,0.1,0.8,0h0.1
				c0.3,0.1,0.5,0.1,0.8,0h0.1c0.3,0.1,0.5,0.1,0.8,0h0.1c0.3,0.1,0.5,0.1,0.8,0h0.1c0.3,0.1,0.5,0.1,0.8,0h0.1
				c0.3,0.1,0.5,0.1,0.8,0h0.1c0.3,0.1,0.5,0.1,0.8,0h0.1c0.3,0.1,0.5,0.1,0.8,0h0.1c0.3,0.1,0.5,0.1,0.8,0h0.1
				c0.3,0.1,0.5,0.1,0.8,0h0.1c0.3,0.1,0.5,0.1,0.8,0h0.1c0.3,0.1,0.5,0.1,0.8,0h0.1c0.3,0.1,0.5,0.1,0.8,0h0.1
				c0.3,0.1,0.5,0.1,0.8,0l1.4-0.3v74.9l-34-89.6c-0.2-0.6-0.8-1.1-1.5-1.2h-18.1c-0.1,0-0.2,0-0.4,0l-3.5,0.7
				c-1.2,0.3-2.2,1.1-2.6,2.2l-34.9,89l-12-74.8c-0.1-0.8-0.9-1.5-1.7-1.5h-18c-0.1,0-0.2,0-0.3,0l-3.6,0.8c-1.1,0.2-2,0.9-2.5,1.9
				l-29.3,59.6l-27.5-43.8c-0.4-0.6-1.2-1-1.9-0.8H124l-3.4,0.7c-1.4,0.3-2.5,1.4-2.8,2.8l-3.5,18.4c-10.3-5.8-22-8.6-33.8-8.1H63.4
				c-2.7,0-5.5,0.2-8.7,0.4c-25.3,2.3-35.5,18.1-33.8,30c1.9,12.9,17.1,19.8,30.9,22.4c10.9,2.3,22.6,3.5,21.3,9.5
				c-0.3,1.6-2.7,2.9-5.8,3.7c-5.7-1.5-11.3-3.5-16.7-6c-0.2-0.1-0.4-0.1-0.6-0.1l-18.4,0.1c-0.4,0.1-0.7,0.3-1,0.6l-10.4,15.2
				c-0.5,0.8-0.3,1.8,0.4,2.3c0,0,0.1,0.1,0.1,0.1c11.7,6,24.8,9.1,38,9h18c8.2,0.2,16.4-1.8,23.6-5.8l-0.4,2.1
				c-0.2,0.9,0.4,1.8,1.3,2c0.1,0,0.2,0,0.3,0h39.5c0.8,0,1.5-0.6,1.7-1.4l3.5-23.2l15.9,24.1c0.3,0.4,0.7,0.7,1.1,0.7H182
				c0.5-0.1,0.9-0.4,1.1-0.8l15.3-27L202,177c0.1,0.8,0.8,1.5,1.7,1.5h61.5c0.7,0,1.3-0.4,1.6-1.1l7-17.6L300,159l6.4,18.3
				c0.2,0.7,0.9,1.1,1.6,1.1h67.4c0.9,0,1.7-0.8,1.7-1.7l0,0v-49.8l24,50.6c0.3,0.6,0.9,1,1.5,1h84c0.9,0,1.7-0.8,1.7-1.7l0,0V29.9
				l22.4-4.5c0.8-0.1,1.4-0.8,1.4-1.7v-22C512,0.9,511.4,0.2,510.6,0z M107.6,136.5c-7-5.6-15.5-9.3-24.4-10.5
				c-12.7-2.1-18.1-3.7-18.1-8c0-2,2.1-3.2,5.2-3.8c5.4,0.6,10.7,2.2,15.6,4.6c0.2,0.1,0.4,0.2,0.6,0.2h18.4
				c0.5-0.1,0.9-0.3,1.2-0.7L113,108L107.6,136.5z M282.1,136.9l5-13.8l5.2,13.2L282.1,136.9z M377.2,94.9H377V52.7l13.3-2.6
				c5.5,3.9,8.5,10.4,7.8,17.1C398.2,81.2,391.8,92.5,377.2,94.9z M444.8,170.5l-29.1-57.2c14.3-7.8,26.6-21.9,26.6-48.4
				c0.2-9-2.4-17.8-7.4-25.2c0.2,0,0.4,0,0.6,0l0.2,0c0.2,0.1,0.5,0.1,0.7,0l0.2,0c0.2,0.1,0.5,0.1,0.7,0l0.2,0
				c0.2,0.1,0.5,0.1,0.7,0l0.2,0c0.2,0.1,0.5,0.1,0.7,0l0.2,0c0.2,0.1,0.5,0.1,0.7,0l5-1L444.8,170.5z"/>
			<path class="st0" d="M468.6,255.1h-18l-44.5,7.9V250l53.4-5.3c0.9-0.1,1.5-0.8,1.5-1.7v-15.6c0-0.9-0.8-1.7-1.7-1.7
				c0,0-0.1,0-0.1,0h-18l-35.2,1.8V214l62.4-1c0.9,0,1.7-0.8,1.7-1.7v-17.7c0-0.9-0.8-1.7-1.7-1.7l0,0H322.1c-0.9,0-1.7,0.8-1.7,1.7
				l0,0v42.8l-53.2-43.6c-0.6-0.5-1.4-0.8-2.3-0.8h-23.3c-1,0-1.8,0.8-1.8,1.8l0,0l0.1,35.8c-10.7-23.1-33.6-38-59-38.4h-18
				c-20.1,0.2-39,9.7-51.1,25.7l9.6-22.3c0.4-0.9,0-2-1-2.4c-0.2-0.1-0.5-0.1-0.7-0.1H5.2c-0.9,0-1.7,0.8-1.7,1.7l0,0v25.6
				c0,0.9,0.8,1.7,1.7,1.7c0,0,0,0,0.1,0h17.9c0,0,0.1,0,0.1,0l39.1-0.8l-1.9,5.3L0.1,363.6c-0.4,0.9,0,1.9,0.9,2.2
				c0.1,0,0.2,0.1,0.3,0.1l18.3,0c0.1,0,0.3,0,0.4,0l98.4-19.8c0.8-0.2,1.3-0.8,1.3-1.6l0.5-26.4c0,0,0-0.1,0-0.1
				c11.7,10.7,26.9,16.7,42.8,16.8h0.4h0.4h0.4h0.4h0.4h0.4h0.4h0.4h0.4h0.4h0.4h0.4h0.4h0.4h0.4h0.4h0.4h0.4h0.4h0.4h0.4h0.4h0.4
				h0.4h0.4h0.4h0.4h0.4h0.4h0.4h0.4h0.4h0.4h0.4h0.4h0.4h0.4h0.4h0.4h0.4h0.4h0.4c25.5-0.4,48.5-15.5,59.1-38.6v19.5
				c0,0.8,0.5,1.4,1.2,1.6l18.7,0l18.3-3.5l6.8-1.3c0.8-0.2,1.3-0.9,1.4-1.7v-52.8l52.3,38.7c0.7,0.5,1.7,0.8,2.6,0.6l17.6,0
				c0.2,0,0.4,0,0.6-0.1l6-1.2c0.8-0.2,1.4-0.9,1.4-1.8v-2l16.6,0.1c0.1,0,0.3,0,0.4,0l85.2-17.2c0.8-0.1,1.4-0.8,1.4-1.7v-16.9
				c0-0.9-0.8-1.7-1.7-1.7C468.8,255.1,468.7,255.1,468.6,255.1z M100.6,316.3c-0.1,0-0.2,0-0.3,0l-33.8,5.9l30.9-71.6
				c-0.7,4.1-1,8.2-1,12.3c-0.2,20.1,7.8,39.4,22.2,53.5L100.6,316.3z"/>
		</g>
	</g>
	<g transform="translate(202.441 140.241)">
		<g transform="translate(0.309 0)">
			<path class="st1" d="M94.1,101.5c-12.9-7.3-27.8-10.2-42.4-8.1c-25.3,2.3-35.5,18.1-33.8,30c1.9,12.9,17.1,19.8,30.9,22.4
				c10.9,2.3,22.6,3.5,21.3,9.5c-0.7,3.3-10.2,5.3-16.7,4.8c-8.2-1.1-16.2-3.5-23.7-7.1c-0.7-0.3-1.6-0.1-2.1,0.6l-10.4,15.2
				c-0.5,0.8-0.3,1.8,0.4,2.3c0,0,0.1,0.1,0.1,0.1c11.7,6,24.8,9.1,38,9c23.7,0,38-13.8,38-27.4c0-18-19-24.5-31.6-26.7
				c-12.7-2.1-18.1-3.7-18.1-8c0-3.2,5.1-4.1,10.9-4.5c9.6-0.4,19.1,1.4,27.9,5.3c0.8,0.5,1.8,0.3,2.3-0.5l9.7-14.4
				c0.5-0.8,0.3-1.8-0.5-2.3C94.2,101.5,94.1,101.5,94.1,101.5z"/>
			<path class="st1" d="M394.6,113.3c14.3-7.7,26.6-21.9,26.6-48.4c0-27.5-20.7-45.1-48.5-39.7l-62.2,13.3c-0.8,0.2-1.3,0.9-1.3,1.6
				v20.1c0,0.9,0.8,1.7,1.7,1.7c0.1,0,0.2,0,0.4,0l19.4-3.9v118.8c0,0.9,0.8,1.7,1.7,1.7l0,0h21.9c0.9,0,1.7-0.8,1.7-1.7l0,0v-56.2
				l14.4-1.2l27.6,58.1c0.3,0.6,0.9,1,1.5,1H425c0.9,0,1.7-0.7,1.7-1.7c0-0.3-0.1-0.5-0.2-0.8L394.6,113.3z M374.1,94.9L355.9,97
				V52.7l21.8-4.3C388,46.9,395,54.6,395,67.2C395.1,81.2,388.7,92.5,374.1,94.9L374.1,94.9z"/>
			<path class="st1" d="M488.9,0l-70.8,15.1c-0.8,0.2-1.3,0.9-1.3,1.7v21.3c0,0.9,0.8,1.7,1.7,1.7c0.1,0,0.2,0,0.3,0l22.9-4.6v141.6
				c0,0.9,0.8,1.7,1.7,1.7l0,0h22.1c0.9,0,1.7-0.8,1.7-1.7l0,0V29.9l22.4-4.5c0.8-0.1,1.4-0.8,1.4-1.7V1.7c0-0.9-0.8-1.7-1.7-1.7
				C489.1,0,489,0,488.9,0z"/>
			<path class="st1" d="M278.7,46.8c-0.3-0.8-1.2-1.3-2.1-1.1l-3.5,0.7c-1.2,0.3-2.2,1.1-2.6,2.2l-47.7,121.4L205.7,62.8
				c-0.2-1-1.1-1.6-2-1.5c0,0-0.1,0-0.1,0l-3.6,0.8c-1.1,0.2-2,0.9-2.5,1.9l-37.1,75.6l-37.6-59.8c-0.4-0.6-1.2-1-1.9-0.8l-3.4,0.7
				c-1.4,0.3-2.5,1.4-2.8,2.8l-17.8,93.8c-0.2,0.9,0.4,1.8,1.3,2c0.1,0,0.2,0,0.3,0h21.6c0.8,0,1.5-0.6,1.7-1.4l6.8-44.8l0.3,0
				l30.2,45.7c0.5,0.8,1.6,1,2.3,0.5c0.2-0.1,0.4-0.3,0.5-0.6l29.5-52l0.3,0l7,51.3c0.1,0.8,0.8,1.5,1.7,1.5h43.6
				c0.7,0,1.3-0.4,1.6-1.1l7-17.6l44-1.4l6.6,18.9c0.2,0.7,0.9,1.1,1.6,1.1h21.3c0.9,0,1.7-0.8,1.7-1.7c0-0.2,0-0.4-0.1-0.6
				L278.7,46.8z M260.6,138.1l14-39l14.5,37.1L260.6,138.1z"/>
		</g>
		<g transform="translate(0 29.858)">
			<path class="st1" d="M115.4,286.5l-53,9.2v-0.5l56.3-130.7c0.4-0.9,0-2-1-2.4c-0.2-0.1-0.5-0.1-0.7-0.1H20.3
				c-0.9,0-1.7,0.8-1.7,1.7l0,0v25.6c0,0.9,0.8,1.7,1.7,1.7c0,0,0,0,0.1,0l57.2-1.1l-2,5.7L15.3,333.7c-0.4,0.8,0,1.8,0.9,2.2
				c0.3,0.1,0.7,0.2,1.1,0.1l98.4-19.8c0.8-0.2,1.3-0.8,1.3-1.6l0.5-26.4c0-0.9-0.7-1.7-1.7-1.7
				C115.7,286.5,115.5,286.5,115.4,286.5z"/>
			<path class="st1" d="M465.8,225.2l-62.4,11.1v-16.1l53.4-5.3c0.9-0.1,1.5-0.8,1.5-1.7v-15.6c0-0.9-0.8-1.7-1.7-1.7
				c0,0-0.1,0-0.1,0l-53.1,2.7v-14.5l62.4-1c0.9,0,1.7-0.8,1.7-1.7v-17.7c0-0.9-0.8-1.7-1.7-1.7l0,0h-85.1c-0.9,0-1.7,0.8-1.7,1.7
				l0,0v97.1c0,1,0.8,1.8,1.8,1.8c0.1,0,0.2,0,0.3,0l85.2-17.2c0.8-0.1,1.4-0.8,1.4-1.7v-16.9c0-0.9-0.8-1.7-1.7-1.7
				C466,225.2,465.9,225.2,465.8,225.2z"/>
			<path class="st1" d="M178.2,161.2c-36.8,0-66.6,32.2-66.6,71.8s29.8,71.8,66.6,71.8s66.6-32.2,66.6-71.8S215,161.2,178.2,161.2z
				 M178.2,277.7c-21.2,0-38.4-20-38.4-44.7s17.2-44.7,38.4-44.7s38.4,20,38.4,44.7S199.4,277.7,178.2,277.7z"/>
			<ellipse class="st1" cx="178.2" cy="233" rx="18.5" ry="22.6"/>
			<path class="st1" d="M362.6,162.1h-25.3c-0.9,0-1.7,0.8-1.7,1.7l0,0V221l-0.3,0l-70.8-58.1c-0.6-0.5-1.4-0.8-2.3-0.8h-5.3
				c-1,0-1.8,0.8-1.8,1.8l0,0l0.2,121.9c0,0.9,0.8,1.7,1.7,1.7c0.1,0,0.2,0,0.3,0l18.3-3.5l6.8-1.3c0.8-0.2,1.3-0.9,1.4-1.7v-65.8
				h0.4l69.8,51.7c0.8,0.6,1.9,0.8,2.8,0.6l6-1.2c0.8-0.2,1.4-0.9,1.4-1.8V163.8C364.2,162.8,363.5,162.1,362.6,162.1z"/>
		</g>
	</g>
</g>
</svg>
