<?xml version="1.0" encoding="utf-8"?>
<!-- Generator: Adobe Illustrator 25.1.0, SVG Export Plug-In . SVG Version: 6.00 Build 0)  -->
<svg version="1.1" id="Слой_1" xmlns="http://www.w3.org/2000/svg" xmlns:xlink="http://www.w3.org/1999/xlink" x="0px" y="0px"
	 viewBox="0 0 512 364.6" style="enable-background:new 0 0 512 364.6;" xml:space="preserve">
<style type="text/css">
	.st0{fill-rule:evenodd;clip-rule:evenodd;fill:url(#Fill-1_1_);}
	.st1{fill-rule:evenodd;clip-rule:evenodd;fill:#FF0000;}
</style>
<g>
	<g>
		<g>
			<g>
				<g id="Clip-2">
				</g>
				
					<linearGradient id="Fill-1_1_" gradientUnits="userSpaceOnUse" x1="-1114.5076" y1="217.0237" x2="-1114.632" y2="216.5183" gradientTransform="matrix(99.912 0 0 108.615 111438.75 -23342.6973)">
					<stop  offset="0" style="stop-color:#FF0000"/>
					<stop  offset="1" style="stop-color:#AC0000"/>
				</linearGradient>
				<path id="Fill-1" class="st0" d="M0,149.2v65.9h80.2c6.3,0,11.9,0.2,17,0.5l0,0c17.7,1,19.9,9.4,4.6,18.7l0,0
					c-4.4,2.7-9.2,5.3-14.8,8.5l0,0l-87,47v74.9l118.2-64c25.2-13.6,44.6-27.4,57.7-40.9l0,0c23-24.2,23.7-45.5,20.3-59.4l0,0
					c-3.4-13.8-14.3-32.2-46-42.4l0,0c-17.7-5.8-41.4-8.7-70-8.7l0,0H0L0,149.2z"/>
				<g id="Group-6" transform="translate(346.000000, 4.000000)">
					<g id="Clip-5">
					</g>
					<path id="Fill-4" class="st1" d="M-149.8,47.1c-3.4-13.8-14.3-32.2-46-42.4c-17.7-5.8-41.4-8.7-70-8.7H-346v65.9h80.2
						c6.3,0,11.9,0.2,17,0.5c17.7,1,19.9,9.4,4.6,18.7c-4.4,2.7-9.2,5.3-14.8,8.5l-87,46.8v74.9l118.2-64
						c25.2-13.6,44.6-27.4,57.7-40.9C-147.1,82.2-146.4,60.9-149.8,47.1"/>
				</g>
			</g>
		</g>
	</g>
	<g>
		<path d="M229.8,87.3h52.7v63.8h-10.7V97.1h-31.2v54.1h-10.7V87.3z"/>
		<path d="M291.7,140.6h2c2.8,0,4.9-0.6,6.4-1.9c1.5-1.3,2.6-3.9,3.4-8.1c0.8-4.1,1.2-10.3,1.2-18.4V87.3h44.3v63.8h-10.7V97.1
			h-23.5v16.5c0,7.7-0.4,14-1.2,19c-0.8,4.9-2.1,8.8-3.9,11.5c-1.8,2.7-4,4.6-6.4,5.6c-2.5,1-5.6,1.5-9.4,1.5h-2.1V140.6z"/>
		<path d="M416.8,86.2c9.4,0,16.7,3.1,22,9.3c5.2,6.2,7.9,14.1,7.9,23.8s-2.6,17.6-7.9,23.8c-5.2,6.2-12.6,9.3-22,9.3
			c-8.8,0-15.7-2.7-20.8-8.1c-5.1-5.4-8.1-12.4-8.9-21h-12v27.9h-10.7V87.3h10.7v25.9h12.2c1-8,4-14.6,9.2-19.6
			C401.7,88.7,408.4,86.2,416.8,86.2z M416.8,142.6c6.1,0,10.8-2.2,14-6.6c3.2-4.4,4.8-10,4.8-16.7c0-6.7-1.6-12.3-4.8-16.7
			c-3.2-4.4-7.9-6.6-14-6.6c-6.3,0-11,2.2-14.2,6.6c-3.2,4.4-4.8,10-4.8,16.7c0,6.7,1.6,12.3,4.8,16.7
			C405.8,140.4,410.5,142.6,416.8,142.6z"/>
		<path d="M500.7,131.9H512c-1.1,6.2-3.9,11.2-8.5,14.9c-4.6,3.7-10.4,5.6-17.5,5.6c-9.4,0-16.8-3.1-22.1-9.2
			c-5.3-6.1-8-14.1-8-23.9c0-9.8,2.7-17.8,8-23.9c5.3-6.1,12.7-9.2,22.1-9.2c6.7,0,12.3,1.7,16.8,5.1c4.4,3.4,7.3,8,8.4,13.8H500
			c-2-6.1-6.7-9.1-13.9-9.1c-6.3,0-11,2.2-14.3,6.6c-3.3,4.4-4.9,10-4.9,16.7c0,6.7,1.6,12.3,4.9,16.7c3.2,4.4,8,6.6,14.3,6.6
			c3.9,0,7.2-0.9,9.7-2.8C498.2,137.9,499.9,135.3,500.7,131.9z"/>
	</g>
</g>
</svg>
