<?xml version="1.0" encoding="UTF-8" standalone="no"?>
<svg viewBox="0 0 3478.3972 5320.5605" version="1.1" id="svg76616" xmlns:xlink="http://www.w3.org/1999/xlink" xmlns="http://www.w3.org/2000/svg" xmlns:svg="http://www.w3.org/2000/svg">
  <defs id="defs5">
    <linearGradient id="linearGradient22984">
      <stop style="stop-color:#fe0000;stop-opacity:1" offset="0" id="stop22980"/>
      <stop style="stop-color:#f80101;stop-opacity:1" offset="0.27326119" id="stop65958"/>
      <stop style="stop-color:#e90303;stop-opacity:1" offset="0.53155398" id="stop60324"/>
      <stop style="stop-color:#d80505;stop-opacity:1" offset="0.74806815" id="stop72342"/>
      <stop style="stop-color:#c10909;stop-opacity:1" offset="1" id="stop22982"/>
    </linearGradient>
    <linearGradient xlink:href="#linearGradient22984" id="linearGradient22978" x1="2680.5742" y1="3258.0605" x2="1825.6599" y2="1846.2645" gradientUnits="userSpaceOnUse" gradientTransform="translate(-1.3521556,-1.1679688)"/>
  </defs>
  <path id="path1044" style="fill:#ff0000" d="m 1738.9486,1873.8164 c -544.983,0 -1039.08189,251.2685 -1360.10154,650.2871 C 257.24812,2675.2476 159.98277,2849.2189 94.46425,3036.9218 33.4807,3212.3303 0.00135998,3400.9343 0.00135998,3597.2129 -0.50523997,4001.0223 140.54816,4374.008 378.84706,4670.207 c 321.01962,399.0186 815.11904,651.1022 1360.10154,650.3516 h 0.5 c 544.9825,0.7506 1039.0819,-251.333 1360.1015,-650.3516 238.2989,-296.199 379.3523,-669.1847 378.8457,-1072.9941 0.5066,-403.8094 -140.5468,-776.9104 -378.8457,-1073.1094 -321.9422,-400.1653 -815.3719,-650.1381 -1360.1015,-650.2871 z m 0.3008,1010.0761 h 0.2089 c 228.4428,0.062 435.372,103.7428 570.3848,269.4004 99.9351,122.6183 159.0896,276.8709 158.877,444.0371 0.2126,167.1659 -59.1411,321.4228 -159.0762,444.0411 -134.6257,165.183 -342.2147,269.6888 -570.1856,269.3789 h -0.2089 c -228.5489,0.3107 -435.6595,-104.0455 -570.2852,-269.2285 -99.9353,-122.6183 -159.1879,-277.9061 -158.9766,-444.1915 0,-81.2541 14.1402,-159.03 39.7149,-231.6445 30.2589,-82.257 68.4474,-149.8023 119.4551,-212.3613 134.933,-165.4901 341.5427,-269.4317 570.0918,-269.4317 z"/>
  <path style="fill:url(#linearGradient22978)" d="m 1738.9486,1873.8164 c -544.983,0 -1039.08189,251.2685 -1360.10154,650.2871 l 670.85544,841.582 c 30.2589,-82.257 68.4474,-149.8023 119.4551,-212.3613 134.933,-165.4901 341.5427,-269.4317 570.0918,-269.4317 h 0.2089 c 228.4428,0.062 435.372,103.7428 570.3848,269.4004 26.4216,32.4188 49.8965,67.1043 70.2735,103.5996 h 299.1054 l 637.4199,-385.9902 C 3258.1926,2746.8028 3185.1478,2630.499 3099.5501,2524.1035 2777.6079,2123.9382 2284.1782,1873.9654 1739.4486,1873.8164 Z" id="rect19223"/>
  <path style="fill:#ff0000" d="M 1636.5052,0 179.78261,2834.9609 c -0.003,0.01 -0.005,0.01 -0.008,0.016 -32.50236,65.1457 -61.1023,132.5916 -85.31054,201.9453 C 33.48088,3212.3299 0.00135998,3400.9343 0.00135998,3597.2129 -0.38211905,3902.883 80.472375,4190.8143 223.09511,4441.2246 H 493.58143 L 1049.7025,3365.6855 c 5.5074,-15.0141 11.3254,-29.6916 17.6445,-43.8262 13.471,-31.1784 28.3848,-60.3088 45.0606,-87.9101 L 2770.0697,0 Z" id="rect1392"/>
</svg>