<?xml version="1.0" encoding="utf-8"?>
<!-- Generator: Adobe Illustrator 27.2.0, SVG Export Plug-In . SVG Version: 6.00 Build 0)  -->
<svg version="1.1" id="Слой_1" xmlns="http://www.w3.org/2000/svg" xmlns:xlink="http://www.w3.org/1999/xlink" x="0px" y="0px"
	 width="500px" height="202.3px" viewBox="0 0 500 202.3" style="enable-background:new 0 0 500 202.3;" xml:space="preserve">
<style type="text/css">
	.st0{fill:#FF9C00;}
</style>
<g>
	<g>
		<path class="st0" d="M226.9,149.5V77.8h24v26.8l20.4-26.8h27.9l-25,31.1l25.5,40.6h-28.6l-14-22.7l-6.1,7.5v15.3H226.9z"/>
		<path class="st0" d="M305,149.5V77.8h24v71.7H305z"/>
		<path class="st0" d="M340.4,149.5V77.8h22.4l25.5,31.7V77.8h23.8v71.7h-21.3l-26.6-33.1v33.1H340.4z"/>
		<path class="st0" d="M460.8,151c-11.1,0-20.3-3.6-27.8-10.8c-7.5-7.2-11.2-16-11.2-26.4v-0.2c0-10.4,3.8-19.3,11.4-26.5
			c7.6-7.2,16.9-10.9,27.9-10.9c11.1,0,20.3,3.6,27.8,10.8c7.5,7.2,11.2,16,11.2,26.4v0.2c0,10.4-3.8,19.3-11.4,26.5
			C481,147.4,471.8,151,460.8,151z M450.1,125.1c2.8,3.2,6.4,4.8,10.9,4.8c4.4,0,8-1.6,10.8-4.7c2.7-3.1,4.1-6.9,4.1-11.3v-0.2
			c0-4.4-1.4-8.2-4.2-11.4c-2.8-3.2-6.4-4.8-10.9-4.8c-4.4,0-8,1.6-10.8,4.7c-2.7,3.1-4.1,6.9-4.1,11.3v0.2
			C445.9,118.1,447.3,121.9,450.1,125.1z"/>
	</g>
	<g>
		<path class="st0" d="M236.5,62.1l-12.8-32h9.8l7.2,20.1l7.3-20.1h9.6l-12.9,32H236.5z"/>
		<path class="st0" d="M262.7,61.8V30.1h8.8v31.8H262.7z"/>
		<path class="st0" d="M276.8,61.8l13.5-32h8.5l13.5,32h-9.4l-2.3-5.7h-12.3l-2.3,5.7H276.8z M290.8,49.3h7.1l-3.5-9L290.8,49.3z"/>
		<path class="st0" d="M329.2,62.4c-5.9,0-10.9-1.8-14.9-5.3l4.9-5.9c3.2,2.5,6.7,3.8,10.3,3.8c2.4,0,3.7-0.7,3.7-2.2v-0.1
			c0-0.7-0.4-1.2-1.1-1.7c-0.7-0.4-2.2-0.9-4.3-1.4c-1.9-0.5-3.5-0.9-4.8-1.3c-1.2-0.4-2.5-1-3.7-1.7c-1.2-0.7-2.1-1.7-2.7-2.8
			s-0.9-2.5-0.9-4.1v-0.1c0-3,1.1-5.5,3.3-7.4c2.2-1.9,5.2-2.8,9-2.8c5.2,0,9.6,1.4,13.1,4.2l-4.4,6.2c-2.8-2.1-5.8-3.1-8.9-3.1
			c-2.1,0-3.2,0.7-3.2,2V39c0,0.7,0.4,1.3,1.1,1.7c0.8,0.4,2.2,0.9,4.4,1.3c4,0.9,6.9,2,8.9,3.5c2,1.5,2.9,3.6,2.9,6.4v0.1
			c0,3.2-1.2,5.7-3.5,7.6C336.3,61.5,333.1,62.4,329.2,62.4z"/>
		<path class="st0" d="M345.1,61.8l13.5-32h8.5l13.5,32h-9.4l-2.3-5.7h-12.3l-2.3,5.7H345.1z M359.1,49.3h7.1l-3.5-9L359.1,49.3z"/>
		<path class="st0" d="M389.2,61.8v-24h-9.5v-7.7h27.8v7.7H398v24H389.2z"/>
	</g>
	<path class="st0" d="M101.2,0C45.3,0,0,45.3,0,101.2C0,157,45.3,202.3,101.2,202.3S202.3,157,202.3,101.2C202.3,45.3,157,0,101.2,0
		z M158.9,180.2l-57.7-39.5l-57.7,39.5l21.3-64.4L7,76.1H78l23.2-70l23.2,70h70.9l-57.7,39.7L158.9,180.2z"/>
</g>
</svg>
