<?xml version="1.0" encoding="utf-8"?>
<!-- Generator: Adobe Illustrator 27.2.0, SVG Export Plug-In . SVG Version: 6.00 Build 0)  -->
<svg version="1.1" id="Слой_1" xmlns="http://www.w3.org/2000/svg" xmlns:xlink="http://www.w3.org/1999/xlink" x="0px" y="0px"
	 width="500px" height="160.6px" viewBox="0 0 500 160.6" style="enable-background:new 0 0 500 160.6;" xml:space="preserve">
<style type="text/css">
	.st0{fill:#FD9A00;}
</style>
<g>
	<g>
		<path class="st0" d="M332.9,48V23.1h8.3v9.3l7.1-9.3h9.7l-8.7,10.8l8.9,14.1h-9.9l-4.9-7.9l-2.1,2.6V48H332.9z"/>
		<path class="st0" d="M360.7,48V23.1h8.3V48H360.7z"/>
		<path class="st0" d="M374,48V23.1h7.8l8.9,11v-11h8.2V48h-7.4l-9.2-11.5V48H374z"/>
		<path class="st0" d="M416.2,48.5c-3.8,0-7.1-1.2-9.7-3.7c-2.6-2.5-3.9-5.5-3.9-9.2v-0.1c0-3.6,1.3-6.7,3.9-9.2
			c2.6-2.5,5.9-3.8,9.7-3.8c3.8,0,7.1,1.2,9.7,3.7s3.9,5.5,3.9,9.2v0.1c0,3.6-1.3,6.7-3.9,9.2C423.2,47.3,420,48.5,416.2,48.5z
			 M412.5,39.5c1,1.1,2.2,1.7,3.8,1.7s2.8-0.5,3.7-1.6c0.9-1.1,1.4-2.4,1.4-3.9v-0.1c0-1.5-0.5-2.9-1.5-4c-1-1.1-2.2-1.7-3.8-1.7
			s-2.8,0.5-3.7,1.6c-0.9,1.1-1.4,2.4-1.4,3.9v0.1C411,37.1,411.5,38.4,412.5,39.5z"/>
	</g>
	<g>
		<path class="st0" d="M185.9,48.3L175.8,23h7.7l5.7,15.9L195,23h7.6l-10.2,25.3H185.9z"/>
		<path class="st0" d="M206.3,48.1V23h7v25.1H206.3z"/>
		<path class="st0" d="M216.6,48.1l10.6-25.3h6.7l10.7,25.3h-7.5l-1.8-4.5h-9.7l-1.8,4.5H216.6z M227.7,38.2h5.6l-2.8-7.1
			L227.7,38.2z"/>
		<path class="st0" d="M258,48.5c-4.7,0-8.6-1.4-11.8-4.2l3.9-4.6c2.6,2,5.3,3,8.1,3c1.9,0,2.9-0.6,2.9-1.7V41c0-0.6-0.3-1-0.9-1.3
			c-0.6-0.3-1.7-0.7-3.4-1.1c-1.5-0.4-2.8-0.7-3.8-1c-1-0.3-1.9-0.8-2.9-1.4c-1-0.6-1.7-1.3-2.1-2.2s-0.7-2-0.7-3.2v-0.1
			c0-2.4,0.9-4.3,2.6-5.8c1.8-1.5,4.1-2.2,7.1-2.2c4.1,0,7.6,1.1,10.3,3.3l-3.5,4.9c-2.2-1.6-4.6-2.5-7-2.5c-1.7,0-2.5,0.5-2.5,1.6
			V30c0,0.6,0.3,1,0.9,1.4c0.6,0.3,1.8,0.7,3.5,1.1c3.1,0.7,5.5,1.6,7,2.8c1.5,1.2,2.3,2.8,2.3,5v0.1c0,2.5-0.9,4.5-2.8,6
			C263.6,47.8,261.1,48.5,258,48.5z"/>
		<path class="st0" d="M270.5,48.1l10.6-25.3h6.7l10.7,25.3h-7.5l-1.8-4.5h-9.7l-1.8,4.5H270.5z M281.7,38.2h5.6l-2.8-7.1
			L281.7,38.2z"/>
		<path class="st0" d="M305.4,48.1v-19h-7.5V23h22v6.1h-7.5v19H305.4z"/>
	</g>
	<g>
		<path class="st0" d="M194.2,116.4l-18.4-56.6h19.7l7.9,27l9.1-27.1h16.2l9.1,27.1l8-27h19.3l-18.4,56.6h-16.4l-9.9-27.9l-9.9,27.9
			H194.2z"/>
		<path class="st0" d="M296.4,117.2c-8.7,0-15.9-2.8-21.8-8.4c-5.9-5.6-8.8-12.5-8.8-20.7v-0.2c0-8.2,3-15.1,8.9-20.8
			c5.9-5.7,13.2-8.5,21.8-8.5c8.7,0,15.9,2.8,21.8,8.4c5.9,5.6,8.8,12.5,8.8,20.7v0.2c0,8.2-3,15.1-8.9,20.8
			C312.3,114.3,305,117.2,296.4,117.2z M288,96.8c2.2,2.5,5,3.7,8.5,3.7c3.5,0,6.3-1.2,8.4-3.7c2.1-2.5,3.2-5.4,3.2-8.8v-0.2
			c0-3.5-1.1-6.5-3.3-9c-2.2-2.5-5-3.7-8.5-3.7c-3.5,0-6.3,1.2-8.4,3.7c-2.1,2.5-3.2,5.4-3.2,8.8v0.2
			C284.7,91.3,285.8,94.3,288,96.8z"/>
		<path class="st0" d="M334.3,116V59.8h27.5c9.2,0,16,2.1,20.2,6.4c3.4,3.4,5.1,7.9,5.1,13.3v0.2c0,7.9-3.7,13.6-11.1,17.2
			l13.1,19.1h-21.4l-10.6-16.1h-4V116H334.3z M353.1,86.5h8.1c2.2,0,4-0.5,5.3-1.4c1.3-1,1.9-2.3,1.9-4v-0.2c0-3.6-2.4-5.4-7.1-5.4
			h-8.2V86.5z"/>
		<path class="st0" d="M393.7,116V59.8h18.8v40.1h26.4V116H393.7z"/>
		<path class="st0" d="M445,116V59.8h21.5c10.9,0,19.2,2.5,24.9,7.4c5.7,4.9,8.6,11.7,8.6,20.2v0.2c0,8.6-2.9,15.5-8.8,20.7
			c-5.9,5.2-14.3,7.7-25.3,7.7H445z M466.9,76.1h-3.1v23.4h3.1c9.4,0,14.1-3.9,14.1-11.6v-0.2C481.1,80,476.3,76.1,466.9,76.1z"/>
	</g>
	<path class="st0" d="M80.3,0C35.9,0,0,35.9,0,80.3c0,44.3,35.9,80.3,80.3,80.3s80.3-35.9,80.3-80.3C160.6,35.9,124.6,0,80.3,0z
		 M126.1,143l-45.8-31.4L34.5,143l16.9-51.1L5.6,60.4h56.3L80.3,4.8l18.4,55.5H155l-45.8,31.5L126.1,143z"/>
</g>
</svg>
